<svg width="373" height="503" viewBox="0 0 373 503" fill="none" xmlns="http://www.w3.org/2000/svg">
<path d="M186.387 310.529C198.281 310.529 207.923 300.888 207.923 288.994C207.923 277.101 198.281 267.459 186.387 267.459C174.494 267.459 164.852 277.101 164.852 288.994C164.852 300.888 174.494 310.529 186.387 310.529Z" fill="#A33050" fill-opacity="0.3"/>
<path fill-rule="evenodd" clip-rule="evenodd" d="M216.955 328.398C213.749 328.384 210.611 329.322 207.938 331.092C205.265 332.863 203.178 335.387 201.942 338.345C200.705 341.302 200.374 344.561 200.99 347.707C201.607 350.853 203.143 353.745 205.405 356.017C207.667 358.289 210.552 359.839 213.696 360.47C216.839 361.1 220.099 360.784 223.062 359.56C226.025 358.337 228.559 356.261 230.341 353.597C232.124 350.932 233.076 347.798 233.076 344.592C233.076 340.31 231.38 336.202 228.358 333.167C225.337 330.132 221.237 328.418 216.955 328.398V328.398Z" fill="#A33050" fill-opacity="0.3"/>
<path fill-rule="evenodd" clip-rule="evenodd" d="M155.796 323.033C151.527 323.009 147.347 324.253 143.786 326.607C140.224 328.961 137.442 332.32 135.792 336.257C134.141 340.195 133.697 344.533 134.515 348.723C135.333 352.914 137.377 356.766 140.387 359.794C143.398 362.821 147.239 364.886 151.424 365.728C155.61 366.57 159.951 366.15 163.897 364.522C167.844 362.894 171.218 360.131 173.593 356.583C175.967 353.035 177.235 348.862 177.235 344.592C177.235 338.895 174.98 333.43 170.963 329.39C166.946 325.35 161.493 323.065 155.796 323.033V323.033Z" fill="#A33050" fill-opacity="0.3"/>
<path fill-rule="evenodd" clip-rule="evenodd" d="M344.175 267.459C327.18 237.547 296.637 180.76 298.871 147.595L289.572 143.346L274.349 155.995C252.717 173.306 247.886 201.105 247.886 201.105L244.487 202.61C161.599 128.633 179.978 33.0236 180.245 33.4363C180.245 33.4363 185.101 10.323 194.327 5.00595L189.058 0.927124C189.058 0.927124 166.916 6.87541 156.258 13.6492C93.6915 51.9124 51.3737 106.612 30.3727 175.443C15.2228 225.19 14.3244 283.143 35.0099 350.079L31.5623 353.915C22.6321 348.434 14.5233 341.714 7.47784 333.958L0 341.46C6.89515 363.02 42.4149 502.55 207.923 502.55C330.288 502.55 372.751 399.098 372.751 360.203C372.751 317.789 358.961 293.583 344.175 267.459ZM282.046 407.013L281.779 407.231C277.107 411.179 272.166 414.797 266.993 418.06C176.992 476.79 94.687 402.885 87.4034 395.942L93.7401 387.663C105.117 392.768 117.567 395.027 130.012 394.242L131.955 389.702C128.395 386.312 125.016 382.738 121.831 378.995C43.4832 287.125 85.7524 150.921 130.231 115.498L135.451 117.926C160.798 247.866 261.992 276.66 261.992 276.66L262.307 276.83C263.74 259.228 267.357 252.236 267.357 252.236L274.641 250.415C274.641 250.415 278.38 271.465 293.627 305.698C313.268 337.746 308.364 381.642 281.924 407.086L282.046 407.013Z" fill="#A33050" fill-opacity="0.3"/>
</svg>
