<svg width="40" height="24" viewBox="0 0 40 24" fill="none" xmlns="http://www.w3.org/2000/svg">
<path d="M20.3716 0.203125C21.4358 0.203125 22.4761 0.513847 23.361 1.096C24.2458 1.67815 24.9355 2.50559 25.3428 3.47367C25.75 4.44175 25.8566 5.507 25.649 6.53471C25.4414 7.56243 24.9289 8.50644 24.1764 9.24738C23.4239 9.98832 22.4651 10.4929 21.4213 10.6973C20.3776 10.9017 19.2957 10.7968 18.3124 10.3958C17.3292 9.99484 16.4889 9.31579 15.8976 8.44454C15.3064 7.57328 14.9908 6.54897 14.9908 5.50112C14.9908 4.09601 15.5577 2.74844 16.5668 1.75487C17.5759 0.761305 18.9445 0.203125 20.3716 0.203125ZM3.30908 5.66313C3.30908 6.50449 3.56247 7.32695 4.03721 8.02652C4.51195 8.72609 5.18672 9.27133 5.97618 9.59331C6.76564 9.91528 7.63434 9.99953 8.47243 9.83539C9.31052 9.67124 10.0804 9.26609 10.6846 8.67116C11.2888 8.07622 11.7003 7.31823 11.867 6.49304C12.0337 5.66784 11.9481 4.81251 11.6211 4.03519C11.2941 3.25787 10.7404 2.59349 10.0299 2.12605C9.31938 1.65862 8.48406 1.40912 7.62955 1.40912C6.48369 1.40912 5.38476 1.85731 4.57452 2.65509C3.76427 3.45287 3.30908 4.53489 3.30908 5.66313ZM37.4341 5.66313C37.4341 4.82176 37.1807 3.9993 36.706 3.29973C36.2312 2.60016 35.5564 2.05492 34.767 1.73294C33.9775 1.41097 33.1088 1.32672 32.2707 1.49086C31.4326 1.65501 30.6628 2.06016 30.0586 2.65509C29.4544 3.25002 29.0429 4.00802 28.8762 4.83321C28.7095 5.65841 28.795 6.51374 29.122 7.29106C29.449 8.06838 30.0028 8.73276 30.7133 9.2002C31.4238 9.66763 32.2591 9.91712 33.1136 9.91712C33.6812 9.91791 34.2434 9.80842 34.7679 9.59492C35.2925 9.38141 35.7691 9.0681 36.1704 8.67292C36.5718 8.27774 36.89 7.80847 37.1068 7.29199C37.3237 6.77552 37.4349 6.22199 37.4341 5.66313ZM13.3333 13.1211C12.2425 11.9931 10.323 11.0751 7.62346 11.0751C3.21768 11.0751 0.871582 13.5111 0.871582 15.3291V18.7191C0.871582 18.9483 0.964033 19.168 1.1286 19.3301C1.29316 19.4921 1.51635 19.5831 1.74908 19.5831H9.95127V18.1731C9.95127 16.3551 11.17 14.4591 13.3333 13.1211ZM33.1197 11.0751C30.4202 11.0751 28.5006 11.9931 27.4099 13.1211C29.5731 14.4591 30.7919 16.3551 30.7919 18.1731V19.5831H38.9941C39.1093 19.5831 39.2234 19.5608 39.3299 19.5174C39.4364 19.4739 39.5331 19.4103 39.6146 19.3301C39.6961 19.2498 39.7607 19.1546 39.8048 19.0498C39.8489 18.9449 39.8716 18.8326 39.8716 18.7191V15.3291C39.8716 13.5111 37.5255 11.0751 33.1197 11.0751ZM20.3716 12.5091C14.3692 12.5091 11.17 15.7431 11.17 18.1731V22.9731C11.17 23.2023 11.2625 23.422 11.427 23.5841C11.5916 23.7461 11.8148 23.8371 12.0475 23.8371H28.6956C28.9284 23.8371 29.1516 23.7461 29.3161 23.5841C29.4807 23.422 29.5731 23.2023 29.5731 22.9731V18.1731C29.5731 15.7431 26.3739 12.5091 20.3716 12.5091Z" fill="#EC0C4B"/>
</svg>
