<svg width="29" height="31" viewBox="0 0 29 31" fill="none" xmlns="http://www.w3.org/2000/svg">
<path fill-rule="evenodd" clip-rule="evenodd" d="M28.1463 6.39331C28.1463 2.97266 25.3728 0.199219 21.9522 0.199219H6.79071C3.37012 0.199219 0.59668 2.97266 0.59668 6.39331V18.4578C0.59668 21.5085 2.81543 24.0509 5.72754 24.5593V29.7827C5.72754 30.1525 5.95868 30.5222 6.28223 30.7072C6.4209 30.7996 6.60583 30.7996 6.74451 30.7996C6.97559 30.7996 7.16052 30.7534 7.3454 30.6147L10.4424 28.3497C13.8168 25.8999 17.7921 24.6056 21.9522 24.6056C25.3728 24.6056 28.1463 21.8322 28.1463 18.4115V6.39331ZM14.3715 5.77832C12.6611 5.77832 10.9971 6.8877 10.9971 9.01404C10.9971 9.56873 11.4593 10.0309 12.014 10.0309C12.5687 10.0309 13.0309 9.56873 13.0309 9.01404C13.0309 7.90466 14.2328 7.8584 14.3715 7.8584C14.5101 7.8584 15.7119 7.90466 15.7119 9.01404V9.24512C15.7119 9.7074 15.4808 10.0771 15.0648 10.3082L14.1403 10.8168C13.6318 11.0941 13.3545 11.6025 13.3545 12.1572V12.9893C13.3545 13.5439 13.8168 14.0062 14.3715 14.0062C14.9261 14.0062 15.3884 13.5439 15.3884 12.9893V12.4808L16.0355 12.1572C17.0986 11.6025 17.7458 10.4932 17.7458 9.29138V9.01404C17.7458 6.8877 16.0355 5.77832 14.3715 5.77832ZM14.3716 16.9912C12.7075 16.9912 12.7075 19.5797 14.3716 19.5797C16.0356 19.5797 16.0356 16.9912 14.3716 16.9912Z" fill="#1C9DE7"/>
</svg>
