<svg width="45" height="29" viewBox="0 0 45 29" fill="none" xmlns="http://www.w3.org/2000/svg">
<path d="M40.7969 6.54199H42.4903V8.23543H40.7969V6.54199Z" fill="#EFFF31"/>
<path d="M39.1035 8.23535H40.797V9.92879H39.1035V8.23535Z" fill="#EFFF31"/>
<path d="M40.7969 9.92871H42.4903V11.6221H40.7969V9.92871Z" fill="#EFFF31"/>
<path d="M42.4907 8.23535H44.1842V9.92879H42.4907V8.23535Z" fill="#EFFF31"/>
<path d="M24.6003 5.02337C24.4007 4.99705 24.1908 5.00785 23.9804 5.06514C23.139 5.29057 22.6602 6.11954 22.8857 6.96118L27.2947 23.4117C27.5202 24.2532 28.3493 24.7318 29.1908 24.5062C30.0322 24.2808 30.5109 23.4517 30.2855 22.6104L25.8765 6.15983C25.7073 5.52874 25.1991 5.10158 24.6003 5.02261V5.02337ZM21.4524 7.59679L7.59036 15.6797L7.63572 15.8521C7.63631 15.8537 7.63884 15.8521 7.63884 15.8521L8.63978 19.59L9.64072 23.3274L9.68901 23.506L25.7374 23.5788L24.183 17.7727L22.3323 10.8748L11.2192 17.3582C11.0415 17.4617 10.83 17.4905 10.6312 17.438C10.4324 17.3855 10.2627 17.2562 10.1592 17.0785C10.0557 16.9009 10.0271 16.6893 10.0796 16.4906C10.132 16.2918 10.2613 16.1221 10.439 16.0186L21.9181 9.32652L21.4524 7.59074V7.59679ZM4.86574 15.1203C4.66614 15.094 4.45619 15.1048 4.24582 15.1621C3.40437 15.3875 2.92564 16.2166 3.15113 17.0581L3.35072 17.8052L4.55427 22.2927L5.15604 24.5365C5.38149 25.378 6.21064 25.8567 7.05209 25.6311C7.89354 25.4057 8.37222 24.5764 8.14678 23.7351L6.14187 16.2569C5.97275 15.6257 5.46456 15.1987 4.86574 15.1197V15.1203ZM2.05645 18.9547L0.55957 19.3569L1.36093 22.3477L2.85781 21.9455L2.05645 18.9547Z" fill="#EFFF31"/>
<path d="M31.0293 0.882812H32.7227V2.57625H31.0293V0.882812Z" fill="#EFFF31"/>
<path d="M29.3359 2.57617H31.0294V4.26961H29.3359V2.57617Z" fill="#EFFF31"/>
<path d="M31.0293 4.26953H32.7227V5.96297H31.0293V4.26953Z" fill="#EFFF31"/>
<path d="M32.7231 2.57617H34.4166V4.26961H32.7231V2.57617Z" fill="#EFFF31"/>
<path d="M40.7969 6.54199H42.4903V8.23543H40.7969V6.54199Z" fill="#EFFF31"/>
<path d="M39.1035 8.23535H40.797V9.92879H39.1035V8.23535Z" fill="#EFFF31"/>
<path d="M40.7969 9.92871H42.4903V11.6221H40.7969V9.92871Z" fill="#EFFF31"/>
<path d="M42.4907 8.23535H44.1842V9.92879H42.4907V8.23535Z" fill="#EFFF31"/>
<path d="M34.4155 13.9512H36.109V15.6446H34.4155V13.9512Z" fill="#EFFF31"/>
<path d="M32.7222 15.6455H34.4156V17.3389H32.7222V15.6455Z" fill="#EFFF31"/>
<path d="M34.4155 17.3379H36.109V19.0313H34.4155V17.3379Z" fill="#EFFF31"/>
<path d="M36.1094 15.6455H37.8028V17.3389H36.1094V15.6455Z" fill="#EFFF31"/>
<path d="M10.4663 23.5098L10.9562 25.3393C11.3967 26.9834 12.9893 28.1546 14.709 28.1546H19.5171C20.377 28.1546 21.1588 27.8173 21.646 27.2111C22.1333 26.6048 22.2897 25.7592 22.0694 24.9371L21.6884 23.5098H20.0826L20.5725 25.3393C20.6852 25.76 20.6041 26.0356 20.4395 26.2404C20.2749 26.4453 19.9893 26.6063 19.5172 26.6063H14.709C13.7646 26.6063 12.6756 25.7786 12.4501 24.9371L12.066 23.5098H10.4664H10.4663Z" fill="#EFFF31"/>
</svg>
