<svg width="196" height="68" viewBox="0 0 196 68" fill="none" xmlns="http://www.w3.org/2000/svg">
<path d="M34.8196 29.791C33.4303 29.791 32.3334 30.9976 32.3334 32.4996C32.3334 34.0016 33.4546 35.2081 34.8196 35.2081C36.209 35.2081 37.3059 34.0016 37.3059 32.4996C37.3059 30.9976 36.1846 29.791 34.8196 29.791ZM25.9228 29.791C24.5334 29.791 23.4365 30.9976 23.4365 32.4996C23.4365 34.0016 24.5578 35.2081 25.9228 35.2081C27.3121 35.2081 28.409 34.0016 28.409 32.4996C28.4334 30.9976 27.3121 29.791 25.9228 29.791Z" fill="white"/>
<path d="M46.6657 9.30371H14.0032C11.2488 9.30371 9.00635 11.5691 9.00635 14.3515V47.3467C9.00635 50.1291 11.2488 52.3945 14.0032 52.3945H41.6445L40.3526 47.8884L43.4726 50.794L46.422 53.5272L51.687 58.1317V14.3515C51.6626 11.5691 49.4201 9.30371 46.6657 9.30371ZM37.257 41.1909C37.257 41.1909 36.3795 40.1321 35.6482 39.221C38.8413 38.31 40.0601 36.3155 40.0601 36.3155C39.0607 36.9803 38.1101 37.4481 37.257 37.7682C36.0382 38.2853 34.8682 38.6054 33.7226 38.827C31.3826 39.2703 29.2376 39.1472 27.4095 38.8024C26.0201 38.5316 24.8257 38.1622 23.8263 37.7436C23.2657 37.522 22.6563 37.2512 22.047 36.9064C21.9738 36.8572 21.9007 36.8326 21.8276 36.7833C21.7788 36.7587 21.7545 36.7341 21.7301 36.7341C21.2913 36.4878 21.0476 36.3155 21.0476 36.3155C21.0476 36.3155 22.2176 38.2607 25.3132 39.1964C24.582 40.1321 23.6801 41.2155 23.6801 41.2155C18.2932 41.0431 16.2457 37.4974 16.2457 37.4974C16.2457 29.6426 19.7557 23.2651 19.7557 23.2651C23.2657 20.6304 26.5807 20.7043 26.5807 20.7043L26.8245 20.9998C22.437 22.2556 20.4382 24.2008 20.4382 24.2008C20.4382 24.2008 20.9745 23.9053 21.8763 23.5114C24.4845 22.3541 26.5563 22.0586 27.4095 21.9601C27.5557 21.9355 27.6776 21.9108 27.8238 21.9108C29.3107 21.7139 30.9926 21.6646 32.7476 21.8616C35.0632 22.1325 37.5495 22.8219 40.0845 24.2008C40.0845 24.2008 38.1588 22.3541 34.0151 21.0983L34.3563 20.7043C34.3563 20.7043 37.6957 20.6304 41.1813 23.2651C41.1813 23.2651 44.6913 29.6426 44.6913 37.4974C44.6913 37.4728 42.6438 41.0185 37.257 41.1909ZM74.0632 19.8425H65.9707V29.027L71.3576 33.927V25.0134H74.2338C76.062 25.0134 76.9639 25.8998 76.9639 27.328V34.1486C76.9639 35.5768 76.1107 36.5371 74.2338 36.5371H65.9463V41.7326H74.0388C78.3776 41.7572 82.4482 39.5657 82.4482 34.5426V27.2049C82.4726 22.0832 78.402 19.8425 74.0632 19.8425ZM116.476 34.5426V27.0079C116.476 24.2993 121.302 23.6837 122.764 26.3923L127.225 24.5702C125.47 20.6797 122.277 19.547 119.62 19.547C115.281 19.547 110.991 22.0832 110.991 27.0079V34.5426C110.991 39.5165 115.281 42.0035 119.523 42.0035C122.253 42.0035 125.519 40.6492 127.323 37.1034L122.545 34.8873C121.375 37.916 116.476 37.1773 116.476 34.5426ZM101.729 28.042C100.047 27.6727 98.9257 27.0571 98.8526 25.9983C98.9501 23.4621 102.826 23.3636 105.093 25.8013L108.676 23.0189C106.433 20.2611 103.898 19.5224 101.29 19.5224C97.317 19.5224 93.4657 21.7877 93.4657 26.0722C93.4657 30.2335 96.6345 32.4742 100.12 33.0159C101.899 33.2622 103.874 33.9763 103.825 35.2074C103.679 37.5466 98.9013 37.4235 96.732 34.7642L93.2707 38.0391C95.2938 40.6738 98.0482 42.0035 100.632 42.0035C104.605 42.0035 109.017 39.6889 109.188 35.4537C109.431 30.1104 105.58 28.7561 101.729 28.042ZM85.3976 41.708H90.8576V19.8425H85.3976V41.708ZM177.462 19.8425H169.369V29.027L174.756 33.927V25.0134H177.633C179.461 25.0134 180.363 25.8998 180.363 27.328V34.1486C180.363 35.5768 179.509 36.5371 177.633 36.5371H169.345V41.7326H177.462C181.801 41.7572 185.871 39.5657 185.871 34.5426V27.2049C185.871 22.0832 181.801 19.8425 177.462 19.8425ZM137.755 19.547C133.27 19.547 128.809 22.0093 128.809 27.0571V34.518C128.809 39.5165 133.294 42.0281 137.804 42.0281C142.289 42.0281 146.749 39.5165 146.749 34.518V27.0571C146.749 22.034 142.24 19.547 137.755 19.547ZM141.265 34.518C141.265 36.0939 139.51 36.9064 137.779 36.9064C136.024 36.9064 134.269 36.1431 134.269 34.518V27.0571C134.269 25.4566 135.976 24.5948 137.682 24.5948C139.461 24.5948 141.265 25.3581 141.265 27.0571V34.518ZM166.347 27.0571C166.225 21.9355 162.764 19.8671 158.303 19.8671H149.65V41.7326H155.183V34.7888H156.158L161.179 41.7326H168.004L162.106 34.2225C164.714 33.3853 166.347 31.0953 166.347 27.0571ZM158.401 30.0119H155.183V25.0134H158.401C161.838 25.0134 161.838 30.0119 158.401 30.0119Z" fill="white"/>
</svg>
