<svg width="20" height="20" viewBox="0 0 20 20" fill="none" xmlns="http://www.w3.org/2000/svg">
<path d="M6.29883 5.03211C6.29883 6.01829 6.59126 6.98232 7.13916 7.8023C7.68705 8.62228 8.46579 9.26137 9.3769 9.63877C10.288 10.0162 11.2906 10.1149 12.2578 9.92251C13.225 9.73012 14.1135 9.25523 14.8108 8.55789C15.5082 7.86056 15.983 6.9721 16.1754 6.00487C16.3678 5.03764 16.2691 4.03508 15.8917 3.12397C15.5143 2.21286 14.8752 1.43412 14.0552 0.886226C13.2353 0.338335 12.2712 0.0458984 11.285 0.0458984C9.96261 0.0458984 8.69435 0.57123 7.75926 1.50633C6.82416 2.44142 6.29883 3.70968 6.29883 5.03211ZM14.8466 5.03211C14.8466 5.73652 14.6377 6.42512 14.2464 7.01082C13.855 7.59651 13.2988 8.05301 12.648 8.32258C11.9972 8.59215 11.2811 8.66268 10.5902 8.52525C9.89933 8.38783 9.26472 8.04862 8.76662 7.55053C8.26853 7.05243 7.92932 6.41782 7.79189 5.72694C7.65447 5.03606 7.725 4.31994 7.99457 3.66915C8.26414 3.01836 8.72063 2.46212 9.30633 2.07076C9.89203 1.67941 10.5806 1.47053 11.285 1.47053C11.7528 1.47053 12.2159 1.56265 12.648 1.74164C13.0801 1.92063 13.4727 2.18297 13.8035 2.51369C14.1342 2.84442 14.3965 3.23704 14.5755 3.66915C14.7545 4.10126 14.8466 4.5644 14.8466 5.03211Z" fill="#A1B6FF"/>
<path d="M19.1202 18.9227V18.6734C19.1216 17.725 18.9361 16.7857 18.5744 15.909C18.2126 15.0324 17.6817 14.2356 17.012 13.5641C16.3422 12.8927 15.5467 12.3599 14.671 11.996C13.7952 11.6321 12.8563 11.4443 11.908 11.4434H10.9285C8.9449 11.4434 7.0425 12.2314 5.63986 13.634C4.23722 15.0366 3.44922 16.939 3.44922 18.9227C3.4548 19.2074 3.5716 19.4786 3.77461 19.6783C3.97763 19.878 4.25074 19.9903 4.5355 19.9911H18.0517C18.3334 19.9857 18.602 19.8714 18.8012 19.6721C19.0004 19.4729 19.1147 19.2043 19.1202 18.9227ZM4.87385 18.5665C4.96479 17.0232 5.64262 15.5732 6.76838 14.5136C7.89415 13.4541 9.38258 12.8653 10.9285 12.868H11.9258C13.4418 12.8743 14.895 13.4745 15.9736 14.5398C17.0522 15.6051 17.6704 17.0507 17.6955 18.5665H4.87385Z" fill="#A1B6FF"/>
<path d="M0.956055 10.0182C0.956055 10.2071 1.0311 10.3883 1.16469 10.5219C1.29827 10.6555 1.47945 10.7305 1.66837 10.7305H3.093V12.1552C3.093 12.3441 3.16805 12.5253 3.30163 12.6588C3.43522 12.7924 3.6164 12.8675 3.80532 12.8675C3.99424 12.8675 4.17542 12.7924 4.309 12.6588C4.44259 12.5253 4.51763 12.3441 4.51763 12.1552V10.7305H5.94227C6.13118 10.7305 6.31236 10.6555 6.44595 10.5219C6.57953 10.3883 6.65458 10.2071 6.65458 10.0182C6.65458 9.82929 6.57953 9.64811 6.44595 9.51453C6.31236 9.38094 6.13118 9.30589 5.94227 9.30589H4.51763V7.88126C4.51763 7.69234 4.44259 7.51116 4.309 7.37758C4.17542 7.24399 3.99424 7.16895 3.80532 7.16895C3.6164 7.16895 3.43522 7.24399 3.30163 7.37758C3.16805 7.51116 3.093 7.69234 3.093 7.88126V9.30589H1.66837C1.47945 9.30589 1.29827 9.38094 1.16469 9.51453C1.0311 9.64811 0.956055 9.82929 0.956055 10.0182Z" fill="#A1B6FF"/>
</svg>
