<svg width="30" height="31" viewBox="0 0 30 31" fill="none" xmlns="http://www.w3.org/2000/svg">
<path d="M7.66467 7.09605C7.17297 6.93215 6.69388 6.72412 6.2463 6.46566C5.20617 5.8668 3.4474 4.7132 2.02273 3.09311C1.44278 2.43751 0.364817 2.85987 0.371121 3.7361C0.390033 5.77855 1.03302 8.58375 3.9454 10.4623C4.20386 10.6262 4.27951 10.9666 4.11561 11.2251C4.1093 11.2377 4.103 11.244 4.09669 11.2566C3.93279 11.4835 3.62391 11.5466 3.37806 11.4079C2.77289 11.0675 2.21184 10.6451 1.71384 10.1597C1.51842 9.9706 1.20953 9.9706 1.01411 10.1597C0.913252 10.2606 0.856517 10.4056 0.875429 10.5506C1.05194 12.5047 1.92187 15.7071 5.73569 16.2366C11.718 17.3272 13.9622 8.4955 7.66467 7.09605Z" fill="#EFFF31"/>
<path d="M6.34088 17.9072C6.95866 16.0286 11.6865 15.8395 10.1358 19.7038C9.54954 20.8511 7.74664 22.6855 4.26061 21.9921C3.98954 21.9353 3.81304 21.6643 3.87607 21.3932C3.90129 21.2734 3.97063 21.1663 4.06519 21.0969C5.51507 20.2018 6.03199 18.8338 6.34088 17.9072Z" fill="#EFFF31"/>
<path d="M23.859 16.2427C27.6728 15.7132 28.5427 12.5109 28.7192 10.5567C28.7319 10.4117 28.6814 10.2667 28.5806 10.1658C28.3914 9.97041 28.0763 9.97041 27.8808 10.1658C27.3828 10.6512 26.8218 11.0736 26.2166 11.414C25.9708 11.5527 25.6619 11.4896 25.498 11.2627C25.4917 11.2564 25.4854 11.2438 25.4791 11.2312C25.3152 10.9727 25.3908 10.6323 25.6493 10.4684C28.5616 8.58986 29.1983 5.77835 29.2236 3.74221C29.2299 2.86597 28.1519 2.44361 27.5719 3.09921C26.1473 4.7193 24.3885 5.87291 23.3484 6.47177C22.8945 6.73023 22.4217 6.93826 21.93 7.10216C15.6262 8.49531 17.8703 17.327 23.859 16.2427Z" fill="#EFFF31"/>
<path d="M25.5236 21.0906C25.6182 21.1662 25.6875 21.2671 25.7128 21.3868C25.7695 21.6579 25.5993 21.929 25.3282 21.9857C21.8422 22.6791 20.0393 20.851 19.453 19.6974C17.9023 15.8332 22.6239 16.0223 23.248 17.9008C23.5568 18.8338 24.0801 20.2017 25.5236 21.0906Z" fill="#EFFF31"/>
<path d="M13.8683 8.24316H13.2064C13.0803 8.24316 12.9732 8.33772 12.9543 8.4638L11.0064 24.2549C10.9685 24.5386 11.0316 24.8223 11.1766 25.0681L14.2592 30.357C14.4294 30.647 14.8013 30.7479 15.0976 30.5777C15.1858 30.5272 15.2678 30.4516 15.3182 30.357L18.4008 25.0681C18.5458 24.8223 18.6025 24.5386 18.571 24.2549L16.6231 8.4638C16.6105 8.33772 16.5033 8.24316 16.371 8.24316H15.709C15.5704 8.24316 15.4569 8.35663 15.4569 8.49532V24.236C15.4632 24.6079 15.1732 24.9168 14.8013 24.942C14.4294 24.9546 14.1205 24.6584 14.1079 24.2864C14.1079 24.2801 14.1079 24.2738 14.1079 24.2675V8.49532C14.1142 8.35663 14.0007 8.24316 13.8683 8.24316Z" fill="#EFFF31"/>
<path d="M18.8417 6.54756V6.42779C18.8417 5.75328 18.2933 5.20485 17.6251 5.20485H16.213L15.86 1.28385C15.8348 0.930839 15.5385 0.653469 15.1855 0.659773H14.4227C14.0697 0.659773 13.7734 0.930839 13.7482 1.28385L13.3952 5.20485H11.9769C11.3023 5.20485 10.7539 5.75328 10.7539 6.42779V6.54756C10.7539 6.73668 10.9052 6.89428 11.0943 6.89428H18.5013C18.6904 6.89428 18.8417 6.74298 18.8417 6.54756Z" fill="#EFFF31"/>
</svg>
