<svg width="101" height="48" viewBox="0 0 101 48" fill="none" xmlns="http://www.w3.org/2000/svg">
<path d="M18.048 29.3707C19.1586 29.3707 20.0589 28.4704 20.0589 27.3598C20.0589 26.2492 19.1586 25.3489 18.048 25.3489C16.9374 25.3489 16.0371 26.2492 16.0371 27.3598C16.0371 28.4704 16.9374 29.3707 18.048 29.3707Z" fill="white"/>
<path fill-rule="evenodd" clip-rule="evenodd" d="M20.9024 31.0393C20.603 31.038 20.31 31.1255 20.0604 31.2909C19.8109 31.4562 19.616 31.6919 19.5005 31.9681C19.385 32.2443 19.3541 32.5485 19.4117 32.8423C19.4692 33.1361 19.6127 33.4061 19.8239 33.6183C20.0351 33.8305 20.3045 33.9752 20.5981 34.0341C20.8916 34.093 21.196 34.0634 21.4727 33.9492C21.7494 33.8349 21.9859 33.6411 22.1524 33.3923C22.3189 33.1435 22.4077 32.8508 22.4077 32.5515C22.4077 32.1516 22.2494 31.768 21.9672 31.4846C21.6851 31.2012 21.3022 31.0411 20.9024 31.0393Z" fill="white"/>
<path fill-rule="evenodd" clip-rule="evenodd" d="M15.1915 30.5383C14.7929 30.5361 14.4025 30.6522 14.07 30.8721C13.7374 31.0919 13.4776 31.4055 13.3235 31.7732C13.1694 32.1408 13.1279 32.546 13.2043 32.9372C13.2807 33.3285 13.4715 33.6883 13.7526 33.971C14.0337 34.2536 14.3924 34.4465 14.7832 34.5251C15.1741 34.6037 15.5794 34.5645 15.9479 34.4125C16.3165 34.2605 16.6316 34.0024 16.8533 33.6711C17.075 33.3398 17.1934 32.9501 17.1934 32.5515C17.1934 32.0195 16.9828 31.5092 16.6077 31.1319C16.2326 30.7547 15.7235 30.5413 15.1915 30.5383Z" fill="white"/>
<path fill-rule="evenodd" clip-rule="evenodd" d="M32.782 25.3489C31.195 22.5558 28.343 17.2531 28.5515 14.1562L27.6832 13.7595L26.2618 14.9407C24.2418 16.5571 23.7906 19.1529 23.7906 19.1529L23.4732 19.2935C15.7334 12.3856 17.4496 3.4578 17.4745 3.49634C17.4745 3.49634 17.9279 1.33806 18.7894 0.841566L18.2975 0.460693C18.2975 0.460693 16.2299 1.01613 15.2346 1.64865C9.39229 5.2216 5.44074 10.3294 3.4797 16.7566C2.06503 21.4019 1.98114 26.8135 3.91271 33.0638L3.59078 33.422C2.75689 32.9102 1.99972 32.2828 1.34182 31.5585L0.643555 32.259C1.28741 34.2722 4.60418 47.3012 20.059 47.3012C31.4852 47.3012 35.4503 37.6411 35.4503 34.0092C35.4503 30.0486 34.1626 27.7883 32.782 25.3489ZM26.9804 38.3802L26.9555 38.4006C26.5192 38.7692 26.0579 39.107 25.5748 39.4117C17.1707 44.8958 9.48524 37.9948 8.80511 37.3464L9.39682 36.5733C10.4592 37.0501 11.6217 37.2609 12.7839 37.1877L12.9652 36.7638C12.6329 36.4472 12.3173 36.1135 12.0199 35.764C4.70393 27.1853 8.65095 14.4668 12.8043 11.1591L13.2917 11.3858C15.6586 23.5194 25.1078 26.2081 25.1078 26.2081L25.1373 26.224C25.2711 24.5804 25.6089 23.9274 25.6089 23.9274L26.289 23.7574C26.289 23.7574 26.6381 25.723 28.0619 28.9196C29.8959 31.9122 29.438 36.0111 26.9691 38.387L26.9804 38.3802Z" fill="white"/>
<path d="M66.7136 37.9948H67.3915L67.0469 37.2217L66.7136 37.9948Z" fill="white"/>
<path d="M48.1642 37.9948H48.842L48.4974 37.2217L48.1642 37.9948Z" fill="white"/>
<path d="M57.8493 37.2421C57.3188 37.2421 57.2009 37.53 57.2009 37.7635V37.7998C57.2009 38.0265 57.3279 38.3303 57.8493 38.3303C58.3708 38.3303 58.5 38.0288 58.5 37.7998V37.7635C58.5 37.53 58.3844 37.2421 57.8493 37.2421Z" fill="white"/>
<path d="M88.2148 37.9948H88.8927L88.5504 37.2217L88.2148 37.9948Z" fill="white"/>
<path d="M76.3986 37.2421C75.8681 37.2421 75.7502 37.53 75.7502 37.7635V37.7998C75.7502 38.0265 75.8772 38.3303 76.3986 38.3303C76.9201 38.3303 77.0493 38.0288 77.0493 37.7998V37.7635C77.0448 37.53 76.9337 37.2421 76.3986 37.2421Z" fill="white"/>
<path d="M99.659 35.5236H42.7549C42.6398 35.5236 42.5294 35.5692 42.4479 35.6503C42.3663 35.7315 42.3202 35.8416 42.3196 35.9567V39.5296C42.3196 39.645 42.3654 39.7558 42.4471 39.8374C42.5287 39.919 42.6394 39.9649 42.7549 39.9649H99.659C99.7162 39.9649 99.7728 39.9536 99.8256 39.9317C99.8784 39.9099 99.9264 39.8778 99.9668 39.8374C100.007 39.797 100.039 39.749 100.061 39.6962C100.083 39.6434 100.094 39.5868 100.094 39.5296V35.9567C100.094 35.8416 100.048 35.7315 99.966 35.6503C99.8845 35.5692 99.7741 35.5236 99.659 35.5236ZM46.5659 38.7361H46.0535V37.4937L45.4776 38.7361H45.0786L44.5028 37.4937V38.7361H43.9995V36.8386H44.6955L45.3008 38.124L45.922 36.8386H46.5772L46.5659 38.7361ZM49.173 38.7361L49.0166 38.3824H47.9941L47.84 38.7361H47.3117L48.1528 36.8386H48.8579L49.7353 38.7361H49.173ZM52.6417 38.7361H52.127L50.9935 37.5073V38.7361H50.4811V36.8386H51.0207L52.1293 38.0605V36.8386H52.6394L52.6417 38.7361ZM55.8156 38.7361H55.3985C55.387 38.6464 55.3657 38.5582 55.335 38.4731C55.2514 38.5704 55.1467 38.6471 55.0287 38.6974C54.9108 38.7478 54.7829 38.7703 54.6549 38.7633H54.6005C53.7662 38.7633 53.5032 38.2419 53.5032 37.8157V37.7477C53.5032 37.3441 53.748 36.8136 54.6118 36.8136H54.6979C55.5232 36.8136 55.7861 37.1741 55.7861 37.4937H55.2443C55.2239 37.4461 55.1491 37.2444 54.6571 37.2444C54.1652 37.2444 54.0496 37.5073 54.0496 37.7613V37.7953C54.0496 38.0424 54.206 38.3371 54.6753 38.3371C55.1446 38.3371 55.2239 38.0968 55.2307 38.0424H54.7161V37.7023H55.8088L55.8156 38.7361ZM59.044 37.8293C59.044 38.2374 58.7923 38.7747 57.9104 38.7747H57.7971C56.9106 38.7747 56.6635 38.2374 56.6635 37.8293V37.7522C56.6635 37.3396 56.9152 36.8181 57.7971 36.8181H57.9104C58.7969 36.8181 59.044 37.3373 59.044 37.7522V37.8293ZM60.9597 38.5366C60.8875 38.5366 60.8169 38.5152 60.7569 38.4751C60.6969 38.435 60.6501 38.378 60.6224 38.3113C60.5948 38.2446 60.5876 38.1712 60.6017 38.1004C60.6158 38.0296 60.6505 37.9646 60.7016 37.9135C60.7526 37.8625 60.8177 37.8277 60.8885 37.8136C60.9593 37.7995 61.0326 37.8068 61.0993 37.8344C61.166 37.862 61.2231 37.9088 61.2632 37.9688C61.3033 38.0288 61.3247 38.0994 61.3247 38.1716C61.3223 38.2668 61.2828 38.3574 61.2146 38.4239C61.1464 38.4904 61.0549 38.5276 60.9597 38.5275V38.5366ZM61.2204 37.292C61.2199 37.2335 61.2369 37.1762 61.2691 37.1274C61.3013 37.0786 61.3473 37.0404 61.4013 37.0179C61.4552 36.9953 61.5147 36.9892 61.572 37.0005C61.6294 37.0118 61.6821 37.04 61.7235 37.0813C61.7649 37.1227 61.793 37.1754 61.8043 37.2328C61.8156 37.2902 61.8095 37.3496 61.787 37.4035C61.7644 37.4575 61.7262 37.5035 61.6774 37.5357C61.6286 37.5679 61.5713 37.5849 61.5128 37.5844C61.4737 37.5841 61.4351 37.5761 61.3992 37.5607C61.3632 37.5453 61.3307 37.523 61.3035 37.4949C61.2763 37.4668 61.2549 37.4337 61.2406 37.3973C61.2264 37.3609 61.2195 37.322 61.2204 37.2829V37.292ZM61.9957 38.5366C61.9235 38.5366 61.853 38.5152 61.7929 38.4751C61.7329 38.435 61.6861 38.378 61.6585 38.3113C61.6309 38.2446 61.6237 38.1712 61.6377 38.1004C61.6518 38.0296 61.6866 37.9646 61.7376 37.9135C61.7887 37.8625 61.8537 37.8277 61.9245 37.8136C61.9953 37.7995 62.0687 37.8068 62.1354 37.8344C62.2021 37.862 62.2591 37.9088 62.2992 37.9688C62.3393 38.0288 62.3607 38.0994 62.3607 38.1716C62.3584 38.2668 62.3189 38.3574 62.2507 38.4239C62.1825 38.4904 62.091 38.5276 61.9957 38.5275V38.5366ZM65.4485 37.2806H64.714V38.7452H64.1926V37.2806H63.458V36.8476H65.4485V37.2806ZM67.7156 38.7452L67.5592 38.3915H66.5345L66.3826 38.7452H65.8543L66.6954 36.8476H67.3982L68.2779 38.7452H67.7156ZM71.182 38.7452H70.6742L69.5406 37.5164V38.7452H69.0305V36.8476H69.5633L70.6719 38.0696V36.8476H71.1798L71.182 38.7452ZM74.356 38.7452H73.9388C73.9273 38.6555 73.906 38.5673 73.8753 38.4822C73.7918 38.5795 73.687 38.6562 73.5691 38.7065C73.4511 38.7568 73.3232 38.7794 73.1952 38.7724H73.1544C72.3201 38.7724 72.0571 38.251 72.0571 37.8247V37.7567C72.0571 37.3532 72.302 36.8227 73.1657 36.8227H73.2519C74.0771 36.8227 74.3401 37.1832 74.3401 37.5028H73.7982C73.7778 37.4552 73.703 37.2534 73.2111 37.2534C72.7191 37.2534 72.6012 37.5164 72.6012 37.7703V37.8043C72.6012 38.0515 72.7599 38.3462 73.2292 38.3462C73.6985 38.3462 73.7778 38.1059 73.7846 38.0514H73.27V37.7114H74.3628L74.356 38.7452ZM77.5843 37.8383C77.5843 38.2464 77.3327 38.7837 76.4508 38.7837H76.3374C75.451 38.7837 75.2039 38.2464 75.2039 37.8383V37.7613C75.2039 37.3486 75.4555 36.8272 76.3374 36.8272H76.4508C77.3372 36.8272 77.5843 37.3464 77.5843 37.7613V37.8383ZM79.4683 38.5457C79.3961 38.5457 79.3255 38.5243 79.2655 38.4842C79.2055 38.4441 79.1587 38.3871 79.131 38.3204C79.1034 38.2537 79.0962 38.1803 79.1103 38.1095C79.1244 38.0387 79.1591 37.9736 79.2102 37.9226C79.2612 37.8715 79.3263 37.8368 79.3971 37.8227C79.4679 37.8086 79.5412 37.8158 79.6079 37.8435C79.6746 37.8711 79.7316 37.9179 79.7718 37.9779C79.8119 38.0379 79.8333 38.1085 79.8333 38.1807C79.8287 38.2728 79.7895 38.3597 79.7235 38.424C79.6574 38.4884 79.5695 38.5254 79.4773 38.5275L79.4683 38.5457ZM79.729 37.301C79.7285 37.2427 79.7454 37.1855 79.7775 37.1367C79.8097 37.0879 79.8555 37.0498 79.9093 37.0271C79.9631 37.0045 80.0225 36.9983 80.0798 37.0094C80.1371 37.0206 80.1898 37.0484 80.2313 37.0896C80.2727 37.1307 80.301 37.1832 80.3126 37.2404C80.3241 37.2977 80.3184 37.357 80.2962 37.411C80.274 37.465 80.2362 37.5112 80.1877 37.5437C80.1392 37.5761 80.0821 37.5935 80.0237 37.5935C79.9844 37.5923 79.9457 37.5833 79.9099 37.567C79.8742 37.5507 79.842 37.5274 79.8154 37.4984C79.7888 37.4695 79.7682 37.4355 79.7549 37.3985C79.7417 37.3615 79.7359 37.3222 79.738 37.2829L79.729 37.301ZM80.5043 38.5457C80.4321 38.5457 80.3616 38.5243 80.3015 38.4842C80.2415 38.4441 80.1947 38.3871 80.1671 38.3204C80.1395 38.2537 80.1323 38.1803 80.1463 38.1095C80.1604 38.0387 80.1952 37.9736 80.2462 37.9226C80.2973 37.8715 80.3623 37.8368 80.4331 37.8227C80.5039 37.8086 80.5773 37.8158 80.644 37.8435C80.7107 37.8711 80.7677 37.9179 80.8078 37.9779C80.8479 38.0379 80.8693 38.1085 80.8693 38.1807C80.8648 38.2728 80.8255 38.3597 80.7595 38.424C80.6935 38.4884 80.6056 38.5254 80.5134 38.5275L80.5043 38.5457ZM84.0637 38.7543H82.3792V36.8567H82.9029V38.3076H84.0727L84.0637 38.7543ZM86.6572 38.7543H84.907V36.8567H86.6414V37.2693H85.433V37.5776H86.6119V38.0061H85.433V38.3212H86.6663L86.6572 38.7543ZM89.2168 38.7543L89.0604 38.4006H88.0356L87.8837 38.7543H87.3555L88.1966 36.8567H88.8994L89.779 38.7543H89.2168ZM92.6718 38.7543H92.2524C92.2431 38.6641 92.2218 38.5757 92.189 38.4913C92.1057 38.5889 92.001 38.666 91.883 38.7163C91.765 38.7667 91.6369 38.789 91.5088 38.7815H91.468C90.6315 38.7815 90.3707 38.26 90.3707 37.8338V37.7658C90.3707 37.3623 90.6156 36.8317 91.4794 36.8317H91.5655C92.3907 36.8317 92.6537 37.1922 92.6537 37.5119H92.1096C92.0892 37.4643 92.0167 37.2625 91.5247 37.2625C91.0327 37.2625 90.9148 37.5255 90.9148 37.7794V37.8134C90.9148 38.0605 91.0735 38.3552 91.5428 38.3552C92.0121 38.3552 92.0892 38.1149 92.0983 38.0605H91.5836V37.7205H92.6877L92.6718 38.7543ZM95.7211 37.8202C95.7211 38.2011 95.5896 38.7815 94.6918 38.7815H94.6193C93.6875 38.7815 93.581 38.1988 93.581 37.8202V36.8567H94.1069V37.8089C94.1069 38.0356 94.1681 38.3348 94.6488 38.3348H94.6624C95.143 38.3348 95.1997 38.0242 95.1997 37.8089V36.8567H95.7211V37.8202ZM98.4121 38.7543H96.6619V36.8567H98.3963V37.2693H97.1788V37.5776H98.36V38.0061H97.1788V38.3212H98.4121V38.7543Z" fill="white"/>
<path d="M67.3144 12.4174H63.8344H43.6572C43.3 12.4174 42.9575 12.5593 42.705 12.8118C42.4524 13.0643 42.3105 13.4069 42.3105 13.764V30.9305C42.3105 31.1169 42.3846 31.2957 42.5164 31.4275C42.6482 31.5593 42.827 31.6333 43.0133 31.6333H46.4389C46.6253 31.6333 46.8041 31.5593 46.9359 31.4275C47.0677 31.2957 47.1417 31.1169 47.1417 30.9305V17.4639H52.3561C52.5577 17.4645 52.7509 17.5451 52.8932 17.6878C53.0356 17.8306 53.1155 18.024 53.1155 18.2257V30.9214C53.1155 31.1078 53.1896 31.2866 53.3214 31.4184C53.4532 31.5502 53.632 31.6242 53.8183 31.6242H57.2394C57.4258 31.6242 57.6046 31.5502 57.7364 31.4184C57.8682 31.2866 57.9422 31.1078 57.9422 30.9214V17.4639H63.0817C63.2833 17.4645 63.4765 17.5451 63.6189 17.6878C63.7612 17.8306 63.8412 18.024 63.8412 18.2257V30.9214C63.8412 31.1078 63.9152 31.2866 64.047 31.4184C64.1788 31.5502 64.3576 31.6242 64.544 31.6242H67.965C68.1514 31.6242 68.3302 31.5502 68.462 31.4184C68.5938 31.2866 68.6678 31.1078 68.6678 30.9214V13.764C68.6678 13.5866 68.6328 13.4109 68.5647 13.2471C68.4966 13.0833 68.3968 12.9345 68.271 12.8094C68.1452 12.6843 67.996 12.5852 67.8318 12.5179C67.6677 12.4507 67.4918 12.4165 67.3144 12.4174Z" fill="white"/>
<path d="M86.9905 12.4174H70.3251C70.2254 12.4165 70.1265 12.4353 70.0341 12.4729C69.9417 12.5104 69.8577 12.5659 69.7869 12.6361C69.716 12.7062 69.6598 12.7898 69.6215 12.8818C69.5831 12.9739 69.5634 13.0726 69.5634 13.1723V16.8269C69.5639 16.9113 69.5812 16.9948 69.6141 17.0726C69.6471 17.1503 69.695 17.2208 69.7553 17.28C69.8155 17.3392 69.8868 17.3859 69.9652 17.4175C70.0435 17.449 70.1273 17.4648 70.2117 17.4639H75.485C75.5849 17.4639 75.6839 17.4836 75.7762 17.5219C75.8685 17.5603 75.9523 17.6164 76.0229 17.6872C76.0934 17.7579 76.1493 17.8419 76.1873 17.9343C76.2254 18.0267 76.2448 18.1257 76.2445 18.2257V30.9214C76.2445 31.1078 76.3185 31.2866 76.4503 31.4184C76.5821 31.5502 76.7609 31.6242 76.9473 31.6242H80.3683C80.4605 31.6242 80.5518 31.606 80.637 31.5707C80.7221 31.5353 80.7994 31.4835 80.8645 31.4182C80.9296 31.3529 80.9811 31.2755 81.0162 31.1902C81.0513 31.1049 81.0692 31.0136 81.0689 30.9214V18.2257C81.0689 18.1256 81.0886 18.0266 81.1269 17.9342C81.1651 17.8417 81.2213 17.7578 81.292 17.687C81.3627 17.6163 81.4467 17.5602 81.5391 17.5219C81.6315 17.4836 81.7306 17.4639 81.8306 17.4639H87.1016C87.272 17.4639 87.4354 17.3964 87.5561 17.2761C87.6768 17.1559 87.7449 16.9927 87.7455 16.8223V13.1723C87.7455 12.9721 87.666 12.7801 87.5244 12.6385C87.3828 12.4969 87.1908 12.4174 86.9905 12.4174Z" fill="white"/>
<path d="M89.2873 31.6333H99.3827C99.475 31.6333 99.5663 31.6151 99.6516 31.5798C99.7369 31.5445 99.8144 31.4927 99.8796 31.4275C99.9449 31.3622 99.9966 31.2847 100.032 31.1995C100.067 31.1142 100.085 31.0228 100.085 30.9305V27.2238C100.085 27.0534 100.017 26.8902 99.8961 26.77C99.7754 26.6497 99.612 26.5822 99.4416 26.5822H94.1797C94.0796 26.5825 93.9804 26.563 93.8878 26.5248C93.7953 26.4867 93.7112 26.4306 93.6404 26.3598C93.5696 26.289 93.5135 26.2049 93.4753 26.1123C93.4371 26.0198 93.4176 25.9206 93.4179 25.8205V13.1247C93.4182 13.0325 93.4003 12.9412 93.3653 12.8559C93.3302 12.7707 93.2786 12.6932 93.2136 12.6279C93.1485 12.5626 93.0711 12.5108 92.986 12.4754C92.9009 12.4401 92.8096 12.4219 92.7174 12.4219H89.2873C89.1009 12.4219 88.9221 12.496 88.7903 12.6278C88.6585 12.7596 88.5845 12.9383 88.5845 13.1247V30.9305C88.5845 31.1169 88.6585 31.2957 88.7903 31.4275C88.9221 31.5593 89.1009 31.6333 89.2873 31.6333Z" fill="white"/>
</svg>
