<svg width="39" height="41" viewBox="0 0 39 41" fill="none" xmlns="http://www.w3.org/2000/svg">
<path fill-rule="evenodd" clip-rule="evenodd" d="M4.15543 22.1656C0.788741 20.4989 -0.117676 16.2133 0.0118124 15.9752L10.9767 21.9489C10.3178 22.6941 9.75507 23.5263 9.30798 24.4261C7.33114 23.666 5.35129 22.8374 4.15543 22.1656ZM9.01166 25.0727C6.6016 24.4649 3.66195 23.6403 0.659253 22.6418C0.529765 22.7608 1.56567 26.8084 4.80287 27.5226C5.64976 27.66 6.87995 27.8327 8.22064 28.0067C8.35358 26.9794 8.62356 25.9951 9.01166 25.0727ZM8.12896 29.2181C6.65193 29.2685 5.1227 29.2724 3.76697 29.1893C3.76697 29.4274 5.19134 32.1655 7.65161 32.1655C7.87784 32.1655 8.1427 32.1541 8.437 32.1338C8.23366 31.2826 8.12598 30.3943 8.12598 29.4809C8.12598 29.393 8.12698 29.3054 8.12896 29.2181ZM8.82786 33.4236C7.77189 33.7111 6.77427 33.9467 5.96827 34.0702C5.96827 34.0702 7.26315 36.213 9.20547 35.4987C9.35918 35.4634 9.54457 35.4129 9.75524 35.3502C9.3886 34.7428 9.07716 34.0982 8.82786 33.4236ZM10.3664 36.2607C9.80042 36.53 9.2354 36.7945 8.68752 37.0464C8.68752 37.0464 10.0767 38.4396 11.6079 37.6716C11.1566 37.2366 10.7411 36.7647 10.3664 36.2607ZM19.5644 40.8556C19.5645 40.8557 19.5645 40.8557 19.5645 40.8558C19.5646 40.8557 19.5646 40.8557 19.5646 40.8556C19.5646 40.8556 19.5645 40.8556 19.5644 40.8556ZM27.4343 37.6325C27.444 37.6356 27.4537 37.6386 27.4633 37.6416C29.0172 38.4749 30.4415 37.0464 30.4415 37.0464C29.8633 36.7805 29.2659 36.5007 28.6685 36.2158C28.2963 36.7216 27.8833 37.1954 27.4343 37.6325ZM29.266 35.3177C29.5216 35.3956 29.7442 35.4575 29.9236 35.4987C31.7364 36.213 33.0313 34.0702 33.0313 34.0702C32.2421 33.944 31.2437 33.7008 30.1808 33.4048C29.9348 34.0742 29.6276 34.7141 29.266 35.3177ZM30.5654 32.1311C30.8631 32.1531 31.1275 32.1655 31.3479 32.1655C33.8082 32.1655 35.2326 29.4274 35.2326 29.1893C33.8662 29.273 32.3397 29.2684 30.8727 29.2169C30.8747 29.3046 30.8757 29.3926 30.8757 29.4809C30.8757 30.3933 30.7683 31.2807 30.5654 32.1311ZM30.7817 28.0119C32.1143 27.8362 33.3413 27.6614 34.1967 27.5226C37.4339 26.8084 38.4698 22.7608 38.3403 22.6418C35.3143 23.648 32.3843 24.4777 29.996 25.0869C30.3816 26.0067 30.6497 26.988 30.7817 28.0119ZM29.7043 24.4475C31.666 23.6815 33.6371 22.8437 34.8441 22.1656C38.2108 20.4989 39.1172 16.2133 38.9877 15.9752L28.0574 21.9857C28.7076 22.7274 29.2628 23.5543 29.7043 24.4475ZM27.8053 21.7075C30.9087 19.4356 34.8749 16.3045 36.139 14.7847C38.0813 12.4038 38.5993 8.3562 38.4698 8.3562C33.8019 13.0603 29.0717 16.6774 25.9188 19.0885C25.6701 19.2786 25.4313 19.4612 25.2031 19.6363C26.1697 20.1975 27.0462 20.8969 27.8053 21.7075ZM13.8593 19.6013C13.6331 19.4299 13.3968 19.2513 13.151 19.0656C9.95982 16.6546 5.18295 13.0455 0.529765 8.3562C0.400277 8.3562 0.91823 12.4038 2.86055 14.7847C4.11616 16.2942 8.10939 19.3934 11.2399 21.6614C12.0049 20.8535 12.8871 20.1577 13.8593 19.6013Z" fill="#EFFF31"/>
<path d="M19.5178 34.4952L19.1815 35.133V37.503C19.1815 37.5253 19.1852 37.5478 19.1918 37.5699C19.2139 37.6429 19.2706 37.7109 19.3497 37.752C19.3736 37.7645 19.3994 37.7745 19.4266 37.7815C19.4553 37.7889 19.4858 37.7928 19.5178 37.7928C19.7125 37.7928 19.8542 37.6201 19.8542 37.503V35.133L19.5178 34.4952Z" fill="#EFFF31"/>
<path fill-rule="evenodd" clip-rule="evenodd" d="M19.5664 33.8658L19.5009 33.7248L19.4358 33.8645C18.9501 34.9104 18.3569 36.1873 16.3389 36.4221C16.2061 35.75 16.152 35.0116 16.5612 34.3937C15.841 34.8406 14.1774 35.9014 12.006 35.3169C11.7458 33.0375 13.0072 31.7905 13.7502 31.2035C12.6974 31.2947 11.7819 31.0058 11.2491 30.187C11.4544 29.4932 11.8687 29.1433 12.2654 28.9217C11.546 28.3723 11.0073 27.8555 10.834 26.3038C12.5576 25.1674 13.245 25.1093 15.3097 25.973C14.8854 25.3934 14.7106 24.5338 14.7665 23.7527C15.7627 23.5358 16.3117 23.8231 16.7282 24.1335C15.8064 22.282 16.5906 20.8471 19.5006 18.4597C22.4101 20.8471 23.1943 22.282 22.2729 24.1335C22.6898 23.8231 23.2384 23.5358 24.2346 23.7527C24.2905 24.5338 24.1157 25.3934 23.6914 25.973C25.7565 25.1094 26.4435 25.1674 28.1671 26.3038C27.9938 27.8555 27.4551 28.3723 26.7357 28.9217C27.1324 29.1431 27.5467 29.4932 27.752 30.187C27.2192 31.0058 26.3041 31.2947 25.2509 31.2035C25.9939 31.7905 27.2553 33.0375 26.9951 35.3169C24.8237 35.9014 23.1601 34.8406 22.4399 34.3937C22.5639 34.581 22.6453 34.7792 22.6949 34.9833C22.7259 35.1104 22.7443 35.2399 22.7531 35.3703C22.7649 35.5416 22.7597 35.7145 22.7435 35.8865C22.7262 36.0674 22.6968 36.2469 22.6622 36.4221C20.6446 36.1875 20.0521 34.9117 19.5664 33.8658ZM19.5006 28.5129C20.5412 28.5129 21.3846 27.6473 21.3846 26.5796C21.3846 25.512 20.5412 24.6463 19.5006 24.6463C18.4599 24.6463 17.6165 25.512 17.6165 26.5796C17.6165 27.6473 18.4599 28.5129 19.5006 28.5129ZM23.6454 30.4462C23.6454 31.5139 22.802 32.3796 21.7614 32.3796C20.7208 32.3796 19.8774 31.5139 19.8774 30.4462C19.8774 29.3786 20.7208 28.5129 21.7614 28.5129C22.802 28.5129 23.6454 29.3786 23.6454 30.4462ZM17.2397 32.3796C18.2803 32.3796 19.1237 31.5139 19.1237 30.4462C19.1237 29.3786 18.2803 28.5129 17.2397 28.5129C16.1991 28.5129 15.3557 29.3786 15.3557 30.4462C15.3557 31.5139 16.1991 32.3796 17.2397 32.3796Z" fill="#EFFF31"/>
<path d="M27.6377 8.47827V7.41064" stroke="#EFFF31" stroke-linecap="round"/>
<path d="M27.6377 11.6812V10.6135" stroke="#EFFF31" stroke-linecap="round"/>
<path d="M29.7717 9.5459L28.7041 9.5459" stroke="#EFFF31" stroke-linecap="round"/>
<path d="M26.5696 9.5459L25.502 9.5459" stroke="#EFFF31" stroke-linecap="round"/>
<path d="M11.6211 8.47852V7.41089" stroke="#EFFF31" stroke-linecap="round"/>
<path d="M11.6211 11.6814V10.6138" stroke="#EFFF31" stroke-linecap="round"/>
<path d="M13.7551 9.5459L12.6875 9.5459" stroke="#EFFF31" stroke-linecap="round"/>
<path d="M10.553 9.5459L9.48535 9.5459" stroke="#EFFF31" stroke-linecap="round"/>
<path d="M20.0547 2.04541V0.977783" stroke="#EFFF31" stroke-linecap="round"/>
<path d="M20.0547 5.24829V4.18066" stroke="#EFFF31" stroke-linecap="round"/>
<path d="M22.1887 3.11279L21.1211 3.11279" stroke="#EFFF31" stroke-linecap="round"/>
<path d="M18.9866 3.11279L17.9189 3.11279" stroke="#EFFF31" stroke-linecap="round"/>
</svg>
