<svg width="35" height="35" viewBox="0 0 35 35" fill="none" xmlns="http://www.w3.org/2000/svg">
<path d="M15.5495 6.15614L9.02359 2.427L6.22852 9.41606L11.823 10.3485L15.5495 6.15614Z" fill="#EFFF31"/>
<path d="M18.8184 16.8483L19.666 21.7904L21.8043 17.5133L19.8093 13.9236L18.8184 16.8483Z" fill="#EFFF31"/>
<path d="M23.2194 25.7031H11.781C11.2439 25.7031 10.79 26.0876 10.702 26.617L9.94238 31.1719H25.058L24.2989 26.617C24.2104 26.0876 23.7564 25.7031 23.2194 25.7031ZM22.9689 30.0781H20.7814V28.9844H21.8752V27.8906H13.1252V28.9844H19.6877V30.0781H12.0314V26.7969H22.9689V30.0781Z" fill="#EFFF31"/>
<path d="M14.237 16.2456L13.1919 16.5671L11.6082 11.4216L6.40137 10.5537L12.9272 24.6095H15.666L13.5282 17.6609L14.5733 17.3393L16.81 24.6095H19.0391L16.0597 7.22925L12.6445 11.071L14.237 16.2456Z" fill="#EFFF31"/>
<path d="M22.7759 18.0142L19.9775 23.6115L20.1482 24.6095H22.1289L26.7932 17.6128L22.7759 18.0142Z" fill="#EFFF31"/>
<path d="M8.75 32.2656H26.2505V33.3594H8.75V32.2656Z" fill="#EFFF31"/>
<path d="M20.4854 12.8886L22.7254 16.9196L27.2064 16.4717L25.8628 11.0959L20.4854 12.8886Z" fill="#EFFF31"/>
<path d="M28.4375 7.88266V9.29688H29.5312V7.88266L30.8514 6.5625H32.2656V5.46875H30.8514L29.5312 4.14859V2.73438H28.4375V4.14859L27.1173 5.46875H25.7031V6.5625H27.1173L28.4375 7.88266Z" fill="#EFFF31"/>
<path d="M28.4375 0.546875H29.5312V1.64062H28.4375V0.546875Z" fill="#EFFF31"/>
<path d="M23.5156 5.46875H24.6094V6.5625H23.5156V5.46875Z" fill="#EFFF31"/>
<path d="M28.4375 10.3906H29.5312V11.4844H28.4375V10.3906Z" fill="#EFFF31"/>
<path d="M33.3594 5.46875H34.4531V6.5625H33.3594V5.46875Z" fill="#EFFF31"/>
<path d="M4.375 27.1173V25.7031H3.28125V27.1173L1.96109 28.4375H0.546875V29.5312H1.96109L3.28125 30.8514V32.2656H4.375V30.8514L5.69516 29.5312H7.10938V28.4375H5.69516L4.375 27.1173Z" fill="#EFFF31"/>
<path d="M3.28125 23.5156H4.375V24.6094H3.28125V23.5156Z" fill="#EFFF31"/>
<path d="M3.28125 33.3594H4.375V34.4531H3.28125V33.3594Z" fill="#EFFF31"/>
<path d="M31.7188 22.1955V20.7812H30.625V22.1955L29.3048 23.5156H27.8906V24.6094H29.3048L30.625 25.9295V27.3438H31.7188V25.9295L33.0389 24.6094H34.4531V23.5156H33.0389L31.7188 22.1955Z" fill="#EFFF31"/>
<path d="M30.625 18.5938H31.7188V19.6875H30.625V18.5938Z" fill="#EFFF31"/>
<path d="M30.625 28.4375H31.7188V29.5312H30.625V28.4375Z" fill="#EFFF31"/>
<path d="M25.7031 23.5156H26.7969V24.6094H25.7031V23.5156Z" fill="#EFFF31"/>
<path d="M1.64062 0.546875H2.73438V1.64062H1.64062V0.546875Z" fill="#EFFF31"/>
<path d="M0.546875 1.64062H1.64062V2.73438H0.546875V1.64062Z" fill="#EFFF31"/>
<path d="M1.64062 2.73438H2.73438V3.82812H1.64062V2.73438Z" fill="#EFFF31"/>
<path d="M2.73438 1.64062H3.82812V2.73438H2.73438V1.64062Z" fill="#EFFF31"/>
<path d="M4.375 15.8594H5.46875V16.9531H4.375V15.8594Z" fill="#EFFF31"/>
<path d="M3.28125 16.9531H4.375V18.0469H3.28125V16.9531Z" fill="#EFFF31"/>
<path d="M4.375 18.0469H5.46875V19.1406H4.375V18.0469Z" fill="#EFFF31"/>
<path d="M5.46875 16.9531H6.5625V18.0469H5.46875V16.9531Z" fill="#EFFF31"/>
<path d="M18.0469 1.64062H19.1406V2.73438H18.0469V1.64062Z" fill="#EFFF31"/>
<path d="M16.9531 2.73438H18.0469V3.82812H16.9531V2.73438Z" fill="#EFFF31"/>
<path d="M18.0469 3.82812H19.1406V4.92188H18.0469V3.82812Z" fill="#EFFF31"/>
<path d="M19.1406 2.73438H20.2344V3.82812H19.1406V2.73438Z" fill="#EFFF31"/>
</svg>
