<svg width="35" height="31" viewBox="0 0 35 31" fill="none" xmlns="http://www.w3.org/2000/svg">
<path d="M27.5354 0.656494H7.5756L8.05242 3.52848H0.659912L6.52956 15.6263H10.2258C10.7328 16.9233 11.5765 18.0615 12.67 18.9237C13.7635 19.7859 15.0672 20.3408 16.4466 20.5312V27.9496H11.0575V30.1674H24.0535V27.9496H18.6644V20.5312C20.0425 20.3396 21.3446 19.7841 22.4367 18.922C23.5288 18.0599 24.3714 16.9223 24.8778 15.6263H28.574L34.4659 3.52848H27.0733L27.5354 0.656494ZM4.18983 5.74624H8.40726L9.68616 13.4086H7.91566L4.18983 5.74624ZM23.1331 13.6747C22.9122 14.9943 22.2306 16.1929 21.2093 17.0573C20.1881 17.9218 18.8935 18.3962 17.5555 18.3962C16.2175 18.3962 14.9229 17.9218 13.9016 17.0573C12.8804 16.1929 12.1988 14.9943 11.9778 13.6747L10.163 2.87425H24.948L23.1331 13.6747ZM30.9211 5.74624L27.1953 13.4086H25.4248L26.7037 5.74624H30.9211Z" fill="#EC0C4B"/>
</svg>
