<svg width="157" height="36" viewBox="0 0 157 36" fill="none" xmlns="http://www.w3.org/2000/svg">
<path d="M14.4683 20.1375C18.6015 20.1375 21.964 16.7749 21.964 12.6417C21.964 8.50854 18.6015 5.146 14.4683 5.146C10.3352 5.146 6.97266 8.50854 6.97266 12.6417C6.97266 16.7749 10.3352 20.1375 14.4683 20.1375ZM14.4683 6.66531C17.7637 6.66531 20.4447 9.34629 20.4447 12.6417C20.4447 15.9371 17.7637 18.6182 14.4683 18.6182C11.173 18.6182 8.49197 15.9371 8.49197 12.6417C8.49197 9.34629 11.173 6.66531 14.4683 6.66531Z" fill="#EC0C4B"/>
<path d="M14.4684 23.1761C20.5266 23.1761 25.5008 27.9052 25.8929 33.8659H8.33643C7.9169 33.8659 7.57677 34.2059 7.57677 34.6255C7.57677 35.0451 7.9169 35.3852 8.33643 35.3852H26.6776C27.0971 35.3852 27.4373 35.0451 27.4373 34.6255C27.4373 27.4745 21.6195 21.6567 14.4684 21.6567C7.31727 21.6567 1.49951 27.4745 1.49951 34.6255C1.49951 35.0451 1.83964 35.3852 2.25917 35.3852H5.2978C5.71733 35.3852 6.05746 35.0451 6.05746 34.6255C6.05746 34.2059 5.71733 33.8659 5.2978 33.8659H3.04374C3.43593 27.9052 8.41027 23.1761 14.4684 23.1761Z" fill="#EC0C4B"/>
<path d="M23.6755 9.8949C23.6755 8.6858 23.4374 7.48854 22.9747 6.37147C22.512 5.25441 21.8338 4.23942 20.9788 3.38446C20.1239 2.52949 19.1089 1.8513 17.9918 1.3886C16.8747 0.925894 15.6775 0.687744 14.4684 0.687744C13.2593 0.687744 12.062 0.925894 10.945 1.3886C9.8279 1.8513 8.81291 2.52949 7.95794 3.38446C7.10298 4.23942 6.42479 5.25441 5.96208 6.37147C5.49938 7.48854 5.26123 8.6858 5.26123 9.8949" stroke="#EC0C4B" stroke-width="1.3" stroke-linecap="round" stroke-linejoin="round"/>
<path d="M5.26123 17.3887L5.26123 7.89819C4.00735 8.15007 1.49958 9.48246 1.49958 12.7971C1.49958 16.1117 4.00735 17.2393 5.26123 17.3887Z" stroke="#EC0C4B" stroke-width="1.3" stroke-linecap="round" stroke-linejoin="round"/>
<path d="M23.6755 7.89816L23.6755 17.3887C24.9294 17.1368 27.4372 15.8044 27.4372 12.4898C27.4372 9.17518 24.9294 8.04761 23.6755 7.89816Z" stroke="#EC0C4B" stroke-width="1.3" stroke-linecap="round" stroke-linejoin="round"/>
<path d="M46.5611 20.1375C50.6943 20.1375 54.0568 16.7749 54.0568 12.6417C54.0568 8.50854 50.6943 5.146 46.5611 5.146C42.428 5.146 39.0654 8.50854 39.0654 12.6417C39.0654 16.7749 42.428 20.1375 46.5611 20.1375ZM46.5611 6.66531C49.8565 6.66531 52.5375 9.34629 52.5375 12.6417C52.5375 15.9371 49.8565 18.6182 46.5611 18.6182C43.2657 18.6182 40.5847 15.9371 40.5847 12.6417C40.5847 9.34629 43.2657 6.66531 46.5611 6.66531Z" fill="#EC0C4B"/>
<path d="M46.5612 23.1761C52.6194 23.1761 57.5936 27.9052 57.9857 33.8659H40.4292C40.0097 33.8659 39.6695 34.2059 39.6695 34.6255C39.6695 35.0451 40.0097 35.3852 40.4292 35.3852H58.7704C59.1899 35.3852 59.53 35.0451 59.53 34.6255C59.53 27.4745 53.7123 21.6567 46.5612 21.6567C39.41 21.6567 33.5923 27.4745 33.5923 34.6255C33.5923 35.0451 33.9324 35.3852 34.3519 35.3852H37.3906C37.8101 35.3852 38.1502 35.0451 38.1502 34.6255C38.1502 34.2059 37.8101 33.8659 37.3906 33.8659H35.1365C35.5287 27.9052 40.503 23.1761 46.5612 23.1761Z" fill="#EC0C4B"/>
<path d="M55.7683 9.8949C55.7683 8.6858 55.5302 7.48854 55.0675 6.37147C54.6048 5.25441 53.9266 4.23942 53.0716 3.38446C52.2166 2.52949 51.2016 1.8513 50.0846 1.3886C48.9675 0.925894 47.7703 0.687744 46.5612 0.687744C45.3521 0.687744 44.1548 0.925894 43.0377 1.3886C41.9207 1.8513 40.9057 2.52949 40.0507 3.38446C39.1958 4.23942 38.5176 5.25441 38.0549 6.37147C37.5922 7.48854 37.354 8.6858 37.354 9.8949" stroke="#EC0C4B" stroke-width="1.3" stroke-linecap="round" stroke-linejoin="round"/>
<path d="M37.354 17.3887L37.354 7.89819C36.1001 8.15007 33.5924 9.48246 33.5924 12.7971C33.5924 16.1117 36.1001 17.2393 37.354 17.3887Z" stroke="#EC0C4B" stroke-width="1.3" stroke-linecap="round" stroke-linejoin="round"/>
<path d="M55.7683 7.89816L55.7683 17.3887C57.0222 17.1368 59.53 15.8044 59.53 12.4898C59.53 9.17518 57.0222 8.04761 55.7683 7.89816Z" stroke="#EC0C4B" stroke-width="1.3" stroke-linecap="round" stroke-linejoin="round"/>
<path d="M78.6537 20.1375C82.7868 20.1375 86.1493 16.7749 86.1493 12.6417C86.1493 8.50854 82.7868 5.146 78.6537 5.146C74.5205 5.146 71.158 8.50854 71.158 12.6417C71.158 16.7749 74.5205 20.1375 78.6537 20.1375ZM78.6537 6.66531C81.949 6.66531 84.63 9.34629 84.63 12.6417C84.63 15.9371 81.949 18.6182 78.6537 18.6182C75.3583 18.6182 72.6773 15.9371 72.6773 12.6417C72.6773 9.34629 75.3583 6.66531 78.6537 6.66531Z" fill="#EC0C4B"/>
<path d="M78.6537 23.1761C84.7119 23.1761 89.6861 27.9052 90.0782 33.8659H72.5217C72.1022 33.8659 71.7621 34.2059 71.7621 34.6255C71.7621 35.0451 72.1022 35.3852 72.5217 35.3852H90.8629C91.2824 35.3852 91.6226 35.0451 91.6226 34.6255C91.6226 27.4745 85.8048 21.6567 78.6537 21.6567C71.5026 21.6567 65.6848 27.4745 65.6848 34.6255C65.6848 35.0451 66.0249 35.3852 66.4445 35.3852H69.4831C69.9026 35.3852 70.2428 35.0451 70.2428 34.6255C70.2428 34.2059 69.9026 33.8659 69.4831 33.8659H67.229C67.6212 27.9052 72.5956 23.1761 78.6537 23.1761Z" fill="#EC0C4B"/>
<path d="M87.8608 9.8949C87.8608 8.6858 87.6227 7.48854 87.16 6.37147C86.6973 5.25441 86.0191 4.23942 85.1641 3.38446C84.3092 2.52949 83.2942 1.8513 82.1771 1.3886C81.06 0.925894 79.8628 0.687744 78.6537 0.687744C77.4446 0.687744 76.2473 0.925894 75.1303 1.3886C74.0132 1.8513 72.9982 2.52949 72.1432 3.38446C71.2883 4.23942 70.6101 5.25441 70.1474 6.37147C69.6847 7.48854 69.4465 8.6858 69.4465 9.8949" stroke="#EC0C4B" stroke-width="1.3" stroke-linecap="round" stroke-linejoin="round"/>
<path d="M69.4465 17.3887L69.4465 7.89819C68.1927 8.15007 65.6849 9.48246 65.6849 12.7971C65.6849 16.1117 68.1927 17.2393 69.4465 17.3887Z" stroke="#EC0C4B" stroke-width="1.3" stroke-linecap="round" stroke-linejoin="round"/>
<path d="M87.8608 7.89816L87.8608 17.3887C89.1147 17.1368 91.6225 15.8044 91.6225 12.4898C91.6225 9.17518 89.1147 8.04761 87.8608 7.89816Z" stroke="#EC0C4B" stroke-width="1.3" stroke-linecap="round" stroke-linejoin="round"/>
<path d="M110.746 20.1375C114.879 20.1375 118.242 16.7749 118.242 12.6417C118.242 8.50854 114.879 5.146 110.746 5.146C106.613 5.146 103.25 8.50854 103.25 12.6417C103.25 16.7749 106.613 20.1375 110.746 20.1375ZM110.746 6.66531C114.042 6.66531 116.723 9.34629 116.723 12.6417C116.723 15.9371 114.042 18.6182 110.746 18.6182C107.451 18.6182 104.77 15.9371 104.77 12.6417C104.77 9.34629 107.451 6.66531 110.746 6.66531Z" fill="#EC0C4B"/>
<path d="M110.746 23.1761C116.804 23.1761 121.779 27.9052 122.171 33.8659H104.614C104.195 33.8659 103.855 34.2059 103.855 34.6255C103.855 35.0451 104.195 35.3852 104.614 35.3852H122.955C123.375 35.3852 123.715 35.0451 123.715 34.6255C123.715 27.4745 117.897 21.6567 110.746 21.6567C103.595 21.6567 97.7773 27.4745 97.7773 34.6255C97.7773 35.0451 98.1175 35.3852 98.537 35.3852H101.576C101.995 35.3852 102.335 35.0451 102.335 34.6255C102.335 34.2059 101.995 33.8659 101.576 33.8659H99.3216C99.7138 27.9052 104.688 23.1761 110.746 23.1761Z" fill="#EC0C4B"/>
<path d="M119.953 9.8949C119.953 8.6858 119.715 7.48854 119.253 6.37147C118.79 5.25441 118.112 4.23942 117.257 3.38446C116.402 2.52949 115.387 1.8513 114.27 1.3886C113.153 0.925894 111.955 0.687744 110.746 0.687744C109.537 0.687744 108.34 0.925894 107.223 1.3886C106.106 1.8513 105.091 2.52949 104.236 3.38446C103.381 4.23942 102.703 5.25441 102.24 6.37147C101.777 7.48854 101.539 8.6858 101.539 9.8949" stroke="#EC0C4B" stroke-width="1.3" stroke-linecap="round" stroke-linejoin="round"/>
<path d="M101.539 17.3887L101.539 7.89819C100.285 8.15007 97.7774 9.48246 97.7774 12.7971C97.7774 16.1117 100.285 17.2393 101.539 17.3887Z" stroke="#EC0C4B" stroke-width="1.3" stroke-linecap="round" stroke-linejoin="round"/>
<path d="M119.953 7.89816L119.953 17.3887C121.207 17.1368 123.715 15.8044 123.715 12.4898C123.715 9.17518 121.207 8.04761 119.953 7.89816Z" stroke="#EC0C4B" stroke-width="1.3" stroke-linecap="round" stroke-linejoin="round"/>
<path d="M142.839 20.1375C146.972 20.1375 150.334 16.7749 150.334 12.6417C150.334 8.50854 146.972 5.146 142.839 5.146C138.706 5.146 135.343 8.50854 135.343 12.6417C135.343 16.7749 138.706 20.1375 142.839 20.1375ZM142.839 6.66531C146.134 6.66531 148.815 9.34629 148.815 12.6417C148.815 15.9371 146.134 18.6182 142.839 18.6182C139.543 18.6182 136.862 15.9371 136.862 12.6417C136.862 9.34629 139.543 6.66531 142.839 6.66531Z" fill="#EC0C4B"/>
<path d="M142.839 23.1761C148.897 23.1761 153.871 27.9052 154.263 33.8659H136.707C136.287 33.8659 135.947 34.2059 135.947 34.6255C135.947 35.0451 136.287 35.3852 136.707 35.3852H155.048C155.467 35.3852 155.808 35.0451 155.808 34.6255C155.808 27.4745 149.99 21.6567 142.839 21.6567C135.688 21.6567 129.87 27.4745 129.87 34.6255C129.87 35.0451 130.21 35.3852 130.63 35.3852H133.668C134.088 35.3852 134.428 35.0451 134.428 34.6255C134.428 34.2059 134.088 33.8659 133.668 33.8659H131.414C131.806 27.9052 136.781 23.1761 142.839 23.1761Z" fill="#EC0C4B"/>
<path d="M152.046 9.8949C152.046 8.6858 151.808 7.48854 151.345 6.37147C150.882 5.25441 150.204 4.23942 149.349 3.38446C148.494 2.52949 147.479 1.8513 146.362 1.3886C145.245 0.925894 144.048 0.687744 142.839 0.687744C141.63 0.687744 140.432 0.925894 139.315 1.3886C138.198 1.8513 137.183 2.52949 136.328 3.38446C135.473 4.23942 134.795 5.25441 134.332 6.37147C133.87 7.48854 133.632 8.6858 133.632 9.8949" stroke="#EC0C4B" stroke-width="1.3" stroke-linecap="round" stroke-linejoin="round"/>
<path d="M133.632 17.3887L133.632 7.89819C132.378 8.15007 129.87 9.48246 129.87 12.7971C129.87 16.1117 132.378 17.2393 133.632 17.3887Z" stroke="#EC0C4B" stroke-width="1.3" stroke-linecap="round" stroke-linejoin="round"/>
<path d="M152.046 7.89816L152.046 17.3887C153.3 17.1368 155.808 15.8044 155.808 12.4898C155.808 9.17518 153.3 8.04761 152.046 7.89816Z" stroke="#EC0C4B" stroke-width="1.3" stroke-linecap="round" stroke-linejoin="round"/>
</svg>
