<svg width="70" height="61" viewBox="0 0 70 61" fill="none" xmlns="http://www.w3.org/2000/svg">
<path d="M55.6059 0.31543H14.7504L15.7264 6.19408H0.594727L12.6093 30.9571H20.1751C21.2128 33.6118 22.9399 35.9416 25.1781 37.7065C27.4164 39.4713 30.0849 40.6071 32.9084 40.9969V56.1815H21.8774V60.721H48.4789V56.1815H37.4479V40.9969C40.2687 40.6046 42.9341 39.4676 45.1695 37.7029C47.4049 35.9383 49.1296 33.6097 50.1661 30.9571H57.7319L69.7918 6.19408H54.6602L55.6059 0.31543ZM7.8201 10.7336H16.4527L19.0705 26.4176H15.4465L7.8201 10.7336ZM46.595 26.9623C46.1428 29.6634 44.7475 32.1167 42.6572 33.8862C40.5669 35.6557 37.9169 36.6267 35.1782 36.6267C32.4394 36.6267 29.7894 35.6557 27.6991 33.8862C25.6088 32.1167 24.2135 29.6634 23.7613 26.9623L20.0465 4.85493H50.3098L46.595 26.9623ZM62.5362 10.7336L54.9099 26.4176H51.2858L53.9036 10.7336H62.5362Z" fill="#EFFF31"/>
</svg>
