<svg width="38" height="42" viewBox="0 0 38 42" fill="none" xmlns="http://www.w3.org/2000/svg">
<path d="M3.35891 25.8273C3.35891 25.8273 4.30798 24.6041 3.69419 22.9052C3.07827 21.2073 1.64396 20.5625 1.64396 20.5625C1.64396 20.5625 0.570636 22.0204 1.1705 23.6753C1.76929 25.3314 3.35891 25.8273 3.35891 25.8273Z" fill="#EFFF31"/>
<path d="M5.99237 26.6963C5.99237 26.6963 7.65162 26.5635 8.60176 25.0799C9.55189 23.5974 8.82563 21.9392 8.82563 21.9392C8.82563 21.9392 7.28528 22.252 6.30944 23.7741C5.33466 25.2952 5.99237 26.6963 5.99237 26.6963Z" fill="#EFFF31"/>
<path d="M6.16088 28.6563C5.39284 30.292 6.22729 31.5967 6.22729 31.5967C6.22729 31.5967 7.85656 31.2475 8.60424 29.6547C9.35085 28.0597 8.41464 26.5107 8.41464 26.5107C8.41464 26.5107 6.92892 27.0206 6.16088 28.6563Z" fill="#EFFF31"/>
<path d="M9.91114 29.9741C9.91114 29.9741 8.47898 30.6233 7.8684 32.3221C7.25783 34.0242 8.21011 35.2433 8.21011 35.2433C8.21011 35.2433 9.7976 34.743 10.3932 33.0859C10.9877 31.4288 9.91114 29.9741 9.91114 29.9741Z" fill="#EFFF31"/>
<path d="M11.1043 38.9206C11.1043 38.9206 12.4819 37.9833 12.5751 36.2255C12.6672 34.4667 11.2157 33.3848 11.2157 33.3848C11.2157 33.3848 10.031 34.4185 9.93569 36.2223C9.84143 38.0251 11.1043 38.9206 11.1043 38.9206Z" fill="#EFFF31"/>
<path d="M5.47405 22.5541C5.47405 22.5541 6.94264 22.0635 7.37325 20.3099C7.80494 18.5564 6.97049 17.2239 6.97049 17.2239C6.97049 17.2239 5.26946 17.8409 4.84849 19.5515C4.42858 21.2612 5.47405 22.5541 5.47405 22.5541Z" fill="#EFFF31"/>
<path d="M3.35772 29.5565C3.35772 29.5565 3.90295 28.1072 2.8157 26.6665C1.72632 25.2246 0.166679 25.0308 0.166679 25.0308C0.166679 25.0308 -0.428896 26.7404 0.631571 28.1458C1.69204 29.5522 3.35772 29.5565 3.35772 29.5565Z" fill="#EFFF31"/>
<path d="M4.5745 33.3802C4.5745 33.3802 4.78338 31.8463 3.4037 30.683C2.02188 29.5186 0.457955 29.6772 0.457955 29.6772C0.457955 29.6772 0.256573 31.4768 1.60197 32.6111C2.94952 33.7445 4.5745 33.3802 4.5745 33.3802Z" fill="#EFFF31"/>
<path d="M6.42788 36.5425C6.42788 36.5425 6.16544 35.0171 4.49654 34.3273C2.82657 33.6353 1.38477 34.2598 1.38477 34.2598C1.38477 34.2598 1.73825 36.0358 3.3643 36.7107C4.99035 37.3823 6.42788 36.5425 6.42788 36.5425Z" fill="#EFFF31"/>
<path d="M7.2375 37.856C5.4979 37.3697 4.13965 38.1613 4.13965 38.1613C4.13965 38.1613 4.70202 39.8816 6.39662 40.3561C8.09337 40.8307 9.41949 39.8248 9.41949 39.8248C9.41949 39.8248 8.97709 38.3412 7.2375 37.856Z" fill="#EFFF31"/>
<path d="M5.65499 23.5995L4.8816 23.2192C4.8409 23.3039 0.862539 31.7544 12.0414 41.3104L12.6005 40.6559C1.95728 31.5562 5.4986 23.9198 5.65499 23.5995Z" fill="#EFFF31"/>
<path d="M33.8783 25.8112C33.8783 25.8112 32.9282 24.5879 33.543 22.8901C34.1568 21.1912 35.5922 20.5464 35.5922 20.5464C35.5922 20.5464 36.6644 22.0032 36.0646 23.6592C35.4679 25.3153 33.8783 25.8112 33.8783 25.8112Z" fill="#EFFF31"/>
<path d="M31.2443 26.68C31.2443 26.68 29.585 26.5461 28.6338 25.0635C27.6837 23.581 28.41 21.9229 28.41 21.9229C28.41 21.9229 29.9503 22.2356 30.9272 23.7567C31.902 25.2789 31.2443 26.68 31.2443 26.68Z" fill="#EFFF31"/>
<path d="M31.0757 28.639C31.8437 30.2747 31.0092 31.5794 31.0092 31.5794C31.0092 31.5794 29.38 31.2302 28.6312 29.6373C27.8857 28.0423 28.8208 26.4934 28.8208 26.4934C28.8208 26.4934 30.3076 27.0044 31.0757 28.639Z" fill="#EFFF31"/>
<path d="M27.3256 29.9578C27.3256 29.9578 28.7567 30.6058 29.3683 32.3079C29.9789 34.009 29.0255 35.228 29.0255 35.228C29.0255 35.228 27.4391 34.7267 26.8435 33.0695C26.248 31.4124 27.3256 29.9578 27.3256 29.9578Z" fill="#EFFF31"/>
<path d="M26.1301 38.9029C26.1301 38.9029 24.7536 37.9667 24.6605 36.2078C24.5683 34.4489 26.0209 33.366 26.0209 33.366C26.0209 33.366 27.2034 34.3997 27.2998 36.2046C27.3952 38.0095 26.1301 38.9029 26.1301 38.9029Z" fill="#EFFF31"/>
<path d="M31.7592 22.5376C31.7592 22.5376 30.2927 22.047 29.8621 20.2934C29.4304 18.5399 30.266 17.2063 30.266 17.2063C30.266 17.2063 31.967 17.8233 32.3869 19.535C32.8068 21.2436 31.7592 22.5376 31.7592 22.5376Z" fill="#EFFF31"/>
<path d="M33.879 29.5399C33.879 29.5399 33.3338 28.0906 34.42 26.6499C35.5094 25.208 37.0701 25.0142 37.0701 25.0142C37.0701 25.0142 37.6667 26.7238 36.6052 28.1291C35.5436 29.5356 33.879 29.5399 33.879 29.5399Z" fill="#EFFF31"/>
<path d="M32.6628 33.3638C32.6628 33.3638 32.4528 31.8298 33.8336 30.6644C35.2154 29.5011 36.7793 29.6596 36.7793 29.6596C36.7793 29.6596 36.9807 31.4603 35.6342 32.5936C34.2878 33.7269 32.6628 33.3638 32.6628 33.3638Z" fill="#EFFF31"/>
<path d="M30.8086 36.5263C30.8086 36.5263 31.0721 34.9999 32.741 34.309C34.412 33.617 35.8528 34.2415 35.8528 34.2415C35.8528 34.2415 35.4993 36.0175 33.8732 36.6913C32.2461 37.3661 30.8086 36.5263 30.8086 36.5263Z" fill="#EFFF31"/>
<path d="M29.9982 37.8394C31.7378 37.3542 33.0971 38.1447 33.0971 38.1447C33.0971 38.1447 32.5358 39.864 30.8402 40.3417C29.1445 40.8141 27.8184 39.8083 27.8184 39.8083C27.8184 39.8083 28.2597 38.3257 29.9982 37.8394Z" fill="#EFFF31"/>
<path d="M31.5801 23.5829L32.3556 23.2026C32.3963 23.2873 36.3747 31.7378 25.1948 41.2927L24.6367 40.6382C35.2778 31.5407 31.7365 23.9021 31.5801 23.5829Z" fill="#EFFF31"/>
<path d="M19.0387 15.228C19.9018 16.3531 20.3792 17.6939 21 19C21.8502 20.7888 22.6522 23.4755 24 25C23.7729 30.5784 20.9752 33.4124 19.2732 33.4124C17.7226 33.4124 16.9473 32.4236 15.9393 30.3166C15.5509 29.5048 15.0644 28.7427 14.5708 27.9695C13.2869 25.9583 11.9551 23.8722 12.1791 20.6423C12.4892 16.1707 15.9782 15.1387 18.4204 15.1817C18.6262 15.1853 18.8327 15.2006 19.0387 15.228Z" fill="#EFFF31"/>
<path d="M26.3346 25.3093C26.3383 23.5338 26.3346 15.1804 18.2314 15.1804C21.8463 16.9246 22.5854 23 25.9763 25.4872C26.1251 25.5963 26.3341 25.4944 26.3346 25.3093Z" fill="#EFFF31"/>
<path d="M17.7101 17.2062C18.1367 17.1899 18.5552 17.1848 18.9619 17.1913C19.0565 17.1928 19.1511 17.1986 19.2457 17.2019C19.0561 13.9566 17.6957 11.6098 17.6339 11.5042C17.42 11.1434 16.9526 11.0218 16.5875 11.2318C16.2227 11.4416 16.0987 11.9046 16.3103 12.2665C16.3232 12.2891 17.5213 14.376 17.7101 17.2062Z" fill="#EFFF31"/>
<path d="M25.3232 10.1159V9.10303" stroke="#EFFF31" stroke-linecap="round"/>
<path d="M25.3232 13.1545V12.1416" stroke="#EFFF31" stroke-linecap="round"/>
<path d="M27.3479 11.1287L26.335 11.1287" stroke="#EFFF31" stroke-linecap="round"/>
<path d="M24.3098 11.1287L23.2969 11.1287" stroke="#EFFF31" stroke-linecap="round"/>
<path d="M10.1289 10.1159V9.10303" stroke="#EFFF31" stroke-linecap="round"/>
<path d="M10.1289 13.1545V12.1416" stroke="#EFFF31" stroke-linecap="round"/>
<path d="M12.1535 11.1287L11.1406 11.1287" stroke="#EFFF31" stroke-linecap="round"/>
<path d="M9.11543 11.1287L8.10254 11.1287" stroke="#EFFF31" stroke-linecap="round"/>
<path d="M18.2334 2.01289V1" stroke="#EFFF31" stroke-linecap="round"/>
<path d="M18.2334 5.05146V4.03857" stroke="#EFFF31" stroke-linecap="round"/>
<path d="M20.258 3.02563L19.2451 3.02563" stroke="#EFFF31" stroke-linecap="round"/>
<path d="M17.2199 3.02563L16.207 3.02563" stroke="#EFFF31" stroke-linecap="round"/>
</svg>
