<svg width="34" height="31" viewBox="0 0 34 31" fill="none" xmlns="http://www.w3.org/2000/svg">
<path d="M8.9109 6.87163L15.438 13.3988L8.09185 20.745C8.57138 21.2861 9.0754 21.7887 9.62073 22.2739L16.9669 14.9277L24.3131 22.2739C24.8487 21.7978 25.3548 21.2945 25.842 20.745L18.4958 13.3988L25.023 6.87163C26.2025 5.69137 26.5791 4.96193 30.2746 0.0917646C24.7738 4.26539 24.5203 4.31789 23.4948 5.34345L16.9669 11.8699L10.4398 5.34275C9.41072 4.31369 9.16291 4.26679 3.65991 0.0910645C7.49192 5.14184 7.74183 5.70257 8.9109 6.87163Z" fill="#EC0C4B"/>
<path d="M33.2911 27.4246C32.8528 26.9864 32.2291 26.8576 31.6747 27.0228L28.0968 23.0669C28.9893 22.0672 29.7811 20.9696 30.4594 19.7683C30.6064 19.5079 30.514 19.1782 30.2543 19.0319C29.9939 18.8849 29.6649 18.9773 29.5179 19.2363C27.9099 22.0847 25.6494 24.3445 22.7989 25.9553C22.5441 26.1009 22.4475 26.432 22.5945 26.6917C22.7415 26.9514 23.0712 27.0431 23.3309 26.8961C24.5322 26.2178 25.6298 25.426 26.6288 24.5335L30.5847 28.1114C30.4195 28.6658 30.5483 29.2895 30.9865 29.7278C31.6229 30.3641 32.654 30.3641 33.2897 29.7278C33.9267 29.0921 33.9267 28.0603 33.2911 27.4246Z" fill="#EC0C4B"/>
<path d="M11.1349 25.9554C8.28439 24.3446 6.02397 22.0842 4.41598 19.2365C4.26897 18.9775 3.93996 18.8858 3.67954 19.0321C3.41983 19.1784 3.32742 19.5081 3.47443 19.7685C4.15277 20.9691 4.94451 22.0667 5.83706 23.0671L2.25917 27.023C1.70474 26.8578 1.081 26.9866 0.642778 27.4248C0.00644375 28.0611 0.00644375 29.0923 0.642778 29.7279C1.27911 30.3643 2.31027 30.3643 2.9459 29.7279C3.38413 29.2897 3.51293 28.666 3.34772 28.1116L7.30364 24.5337C8.30329 25.4262 9.40095 26.218 10.6015 26.8963C10.8619 27.0433 11.1916 26.9509 11.338 26.6919C11.4864 26.4322 11.3898 26.101 11.1349 25.9554Z" fill="#EC0C4B"/>
</svg>
