<svg width="34" height="31" viewBox="0 0 34 31" fill="none" xmlns="http://www.w3.org/2000/svg">
<path d="M8.99903 7.51543L15.5262 14.0426L8.17999 21.3888C8.65951 21.9299 9.16354 22.4325 9.70887 22.9177L17.0551 15.5715L24.4013 22.9177C24.9368 22.4416 25.4429 21.9383 25.9301 21.3888L18.5839 14.0426L25.1111 7.51543C26.2907 6.33517 26.6673 5.60573 30.3628 0.735563C24.8619 4.90919 24.6085 4.96169 23.5829 5.98725L17.0551 12.5137L10.5279 5.98655C9.49886 4.95749 9.25104 4.91059 3.74805 0.734863C7.58005 5.78564 7.82997 6.34637 8.99903 7.51543Z" fill="#9BA22E"/>
<path d="M33.3794 28.0684C32.9412 27.6302 32.3175 27.5014 31.763 27.6666L28.1852 23.7107C29.0777 22.711 29.8694 21.6134 30.5478 20.4121C30.6948 20.1517 30.6024 19.822 30.3427 19.6757C30.0823 19.5287 29.7532 19.6211 29.6062 19.8801C27.9982 22.7285 25.7378 24.9883 22.8873 26.5991C22.6325 26.7447 22.5358 27.0758 22.6829 27.3355C22.8299 27.5952 23.1596 27.6869 23.4193 27.5399C24.6206 26.8616 25.7182 26.0698 26.7172 25.1773L30.6731 28.7552C30.5079 29.3096 30.6367 29.9333 31.0749 30.3716C31.7112 31.0079 32.7424 31.0079 33.378 30.3716C34.0151 29.7359 34.0151 28.7041 33.3794 28.0684Z" fill="#9BA22E"/>
<path d="M11.2233 26.5992C8.37277 24.9884 6.11235 22.728 4.50436 19.8803C4.35735 19.6213 4.02834 19.5296 3.76792 19.6759C3.50821 19.8222 3.4158 20.1519 3.56281 20.4123C4.24115 21.6129 5.03289 22.7105 5.92544 23.7109L2.34754 27.6668C1.79311 27.5016 1.16938 27.6304 0.731157 28.0686C0.0948227 28.7049 0.0948227 29.7361 0.731157 30.3717C1.36749 31.0081 2.39865 31.0081 3.03428 30.3717C3.47251 29.9335 3.60131 29.3098 3.4361 28.7554L7.39202 25.1775C8.39167 26.07 9.48933 26.8618 10.6899 27.5401C10.9503 27.6871 11.28 27.5947 11.4263 27.3357C11.5747 27.076 11.4781 26.7448 11.2233 26.5992Z" fill="#9BA22E"/>
</svg>
