<svg width="28" height="31" viewBox="0 0 28 31" fill="none" xmlns="http://www.w3.org/2000/svg">
<path d="M27.1575 19.8844C26.5448 17.1692 26.7132 12.8977 26.8276 10.9838C26.8815 10.1824 26.7468 9.38774 26.4371 8.64602C24.1747 3.25529 18.5526 3.52019 18.5526 3.52019C18.5526 3.52019 12.9304 3.25529 10.668 8.64602C10.3583 9.38774 10.2304 10.1824 10.2775 10.9838C10.3987 12.8977 10.5603 17.1692 9.94756 19.8844C9.84657 20.3149 9.98123 20.7652 10.2977 21.0765C11.1797 21.9242 13.0852 23.7387 15.4082 25.8314C15.6708 26.0632 16.0747 26.05 16.3104 25.7917C16.4181 25.6791 16.4787 25.5268 16.4787 25.3679V18.242C16.4787 17.7718 16.2027 17.3348 15.7718 17.1295L14.4251 16.4871C13.9471 16.2553 13.6441 15.7785 13.6441 15.2553V13.7718C13.6441 13.6195 13.772 13.4937 13.9269 13.4937C13.9673 13.4937 14.0077 13.5003 14.0413 13.5202C15.3004 14.0632 16.5932 14.5069 17.9196 14.8513C18.3304 14.9573 18.768 14.9573 19.1787 14.8513C20.5052 14.5069 21.7979 14.0566 23.057 13.5202C23.1984 13.4606 23.3668 13.5202 23.4341 13.6659C23.4476 13.699 23.461 13.7387 23.461 13.7785V15.2619C23.461 15.7851 23.158 16.2619 22.68 16.4937L21.3333 17.1361C20.9024 17.3414 20.6331 17.7785 20.6331 18.2487V25.3745C20.6331 25.7255 20.9226 26.0036 21.2728 26.0036C21.4343 26.0036 21.5825 25.944 21.7037 25.8381C24.0333 23.7454 25.9321 21.9308 26.8141 21.0765C27.1239 20.7652 27.2585 20.3149 27.1575 19.8844Z" fill="#EFFF31"/>
<path d="M5.83387 3.50046L4.34584 0.864694C4.23811 0.672641 3.99572 0.599794 3.80045 0.705754C3.73312 0.745489 3.67926 0.798469 3.63886 0.864694L2.14409 3.50046C2.01616 3.72562 1.95557 3.97728 1.95557 4.22893V22.4409C1.95557 22.6859 2.15756 22.8912 2.41342 22.8912H5.57801C5.82714 22.8912 6.03586 22.6925 6.03586 22.4409V4.22231C6.02913 3.97065 5.9618 3.719 5.83387 3.50046Z" fill="#EFFF31"/>
<path d="M7.49016 24.156H0.487666C0.319336 24.156 0.191406 24.2885 0.191406 24.4474V25.6726C0.191406 25.8381 0.32607 25.964 0.487666 25.964H2.81734V30.2818C2.81734 30.4871 2.98567 30.6527 3.1944 30.6527H4.78343C4.99215 30.6527 5.16048 30.4871 5.16048 30.2818V25.964H7.49016C7.65176 25.964 7.78642 25.8315 7.78642 25.6726V24.4474C7.78642 24.2885 7.65176 24.156 7.49016 24.156Z" fill="#EFFF31"/>
</svg>
