<svg width="31" height="31" viewBox="0 0 31 31" fill="none" xmlns="http://www.w3.org/2000/svg">
<path d="M9.67882 7.95665C9.83127 8.44573 10.0218 8.96658 10.2441 9.50647C10.3394 9.72878 10.5935 9.83676 10.8221 9.74149C10.8348 9.73514 10.8412 9.73513 10.8539 9.72878C11.4255 9.44296 12.0163 9.22064 12.6324 9.04915C12.8674 8.98563 13.0008 8.74426 12.9373 8.50925C12.9309 8.49655 12.9246 8.47749 12.9246 8.46479C12.1306 6.48305 11.597 4.90782 11.3176 4.03128C11.1715 3.58666 10.7523 3.29448 10.2822 3.31354C5.89319 3.51044 3.524 1.56046 2.52678 0.4235C2.29811 0.163079 1.89795 0.137672 1.63753 0.366334C1.56766 0.4235 1.51685 0.49972 1.47874 0.575941C-1.79875 7.79786 2.01864 12.2949 3.77807 13.8701C4.03849 14.1051 4.43865 14.0797 4.66731 13.8193C4.73083 13.7494 4.77529 13.6732 4.80069 13.5843C6.04563 9.52553 9.67882 7.95665 9.67882 7.95665Z" fill="#EFFF31"/>
<path d="M23.0431 25.6779C22.9669 25.5954 22.897 25.5064 22.8208 25.4239C22.6747 25.2587 22.4206 25.2397 22.2555 25.3857C22.2491 25.3921 22.2364 25.3985 22.2301 25.4112C21.8744 25.7732 21.4933 26.1098 21.0868 26.4147C20.9216 26.5354 20.8771 26.7641 20.9851 26.9419C21.6711 28.117 21.9824 28.911 22.1475 29.6033C22.2364 29.959 22.554 30.2067 22.9161 30.2067H24.0213C24.4595 30.2067 24.8152 29.851 24.8152 29.4064C24.8152 29.3683 24.8152 29.3238 24.8089 29.2857C24.5167 27.323 23.0431 25.6779 23.0431 25.6779Z" fill="#EFFF31"/>
<path d="M8.18596 25.4048C8.03352 25.246 7.77945 25.2396 7.6143 25.3984C7.60795 25.4048 7.59525 25.4175 7.5889 25.4238C7.51267 25.5064 7.44281 25.5953 7.36659 25.6779C7.25225 25.8049 5.89298 27.323 5.6008 29.273C5.53729 29.7113 5.83582 30.1178 6.26774 30.1813C6.30585 30.1876 6.34396 30.1876 6.38842 30.1876H7.49997C7.86837 30.1876 8.18596 29.9399 8.26853 29.5842C8.43368 28.8982 8.74491 28.0979 9.4309 26.9229C9.53252 26.745 9.48806 26.5227 9.32927 26.3957C8.92276 26.1035 8.54166 25.7668 8.18596 25.4048Z" fill="#EFFF31"/>
<path d="M28.9374 0.57597C28.7913 0.258383 28.4229 0.118645 28.1053 0.264735C28.0228 0.302845 27.9529 0.353659 27.8957 0.423528C26.8858 1.56049 24.5166 3.51047 20.1403 3.31357C19.6766 3.28816 19.251 3.58669 19.1049 4.03131C18.8191 4.9142 18.2919 6.47673 17.4916 8.46482C17.4027 8.68713 17.5107 8.94755 17.733 9.03647C17.7457 9.04283 17.7647 9.04918 17.7774 9.04918C18.3935 9.21432 18.9843 9.44299 19.5559 9.72246C19.7719 9.83044 20.0386 9.74787 20.1466 9.53191C20.153 9.51921 20.1593 9.51285 20.1593 9.50015C20.3816 8.96025 20.5722 8.44576 20.7246 7.95033C20.7246 7.95033 24.3578 9.51921 25.6028 13.5843C25.7044 13.9146 26.0601 14.1052 26.3904 14.0035C26.4793 13.9781 26.5555 13.9337 26.6254 13.8701C28.3912 12.2949 32.2086 7.79789 28.9374 0.57597Z" fill="#EFFF31"/>
<path d="M15.2047 10.0273C10.5044 10.0273 6.69336 13.8384 6.69336 18.5323C6.69336 23.2326 10.5044 27.0436 15.1983 27.0436C19.8986 27.0436 23.7033 23.2389 23.7096 18.5387C23.716 13.8384 19.9113 10.0273 15.2047 10.0273C15.211 10.0273 15.2047 10.0273 15.2047 10.0273ZM15.2047 24.9094C11.6795 24.9094 8.82754 22.0512 8.82754 18.5323C8.82754 15.0135 11.6858 12.1552 15.2047 12.1552C18.7235 12.1552 21.5818 15.0135 21.5818 18.5323C21.5818 22.0575 18.7299 24.9094 15.2047 24.9094Z" fill="#EFFF31"/>
<path d="M15.2049 13.4763C12.4101 13.4763 10.1489 15.7439 10.1489 18.5323C10.1489 21.3271 12.4165 23.5883 15.2049 23.5883C17.9933 23.5883 20.2609 21.3207 20.2609 18.5323C20.2609 15.7439 17.9997 13.4763 15.2049 13.4763ZM15.2049 20.2981C14.2267 20.2981 13.4391 19.5105 13.4391 18.5323C13.4391 17.5541 14.2267 16.7665 15.2049 16.7665C16.1831 16.7665 16.9707 17.5541 16.9707 18.5323C16.9707 19.5105 16.1831 20.2981 15.2049 20.2981Z" fill="#EFFF31"/>
</svg>
