<svg width="90" height="141" viewBox="0 0 90 141" fill="none" xmlns="http://www.w3.org/2000/svg">
<path d="M47.6243 139.2C45.6706 140.415 44.3246 140.415 42.4142 139.2C30.6046 131.819 18.7082 124.481 6.76831 117.274C6.16047 116.97 5.42237 116.97 4.81452 117.274C3.25148 118.055 1.77528 119.054 0.0385742 120.096L0.820092 74.8548L2.5568 74.7245L8.54844 110.37L44.4549 130.343H45.5837L81.4901 110.37L87.4818 74.7245L89.2185 74.8548L90 120.096C88.2633 119.054 86.7871 118.055 85.1806 117.274C84.5728 116.97 83.8347 116.97 83.2268 117.274C71.287 124.525 47.6243 139.2 47.6243 139.2Z" fill="#EFFF31"/>
<path d="M58.5656 21.3208L87.1345 34.3895V67.7777H2.90416V34.3461L26.5668 23.5351V47.7187L26.7839 48.1529L31.1257 57.0535L31.6901 58.2258L32.9492 58.3126L56.4816 59.5283L57.6973 59.6152L58.3919 58.6165L67.1189 45.982L67.9438 44.8097L67.2057 43.594L57.046 27.1821L55.8737 25.3152L58.5656 21.3208ZM57.7841 18.5854L51.011 28.6583L52.7477 31.7844L55.179 28.3978L65.3388 44.8097L56.6118 57.4443L33.0794 56.2286L28.7377 47.2845V21.2339L30.5612 19.367L0.733276 32.9567V69.9051H89.3053V32.9567L57.7841 18.5854Z" fill="#EFFF31"/>
<path d="M40.6341 84.4935H14.1059C13.281 84.4935 12.5863 85.1882 12.5863 86.0131V105.291C12.5863 105.725 12.9336 106.072 13.3678 106.072H17.1886C17.6228 106.072 17.9701 105.725 17.9701 105.291V90.1812H23.8315C24.3091 90.1812 24.6998 90.572 24.6998 91.0496V105.291C24.6998 105.725 25.0472 106.072 25.4814 106.072H29.3021C29.7363 106.072 30.0836 105.725 30.0836 105.291V90.1812H35.8148C36.2924 90.1812 36.6831 90.572 36.6831 91.0496V105.291C36.6831 105.725 37.0305 106.072 37.4646 106.072H41.2854C41.7196 106.072 42.0669 105.725 42.0669 105.291V86.0131C42.1537 85.1448 41.4591 84.4935 40.6341 84.4935Z" fill="#EFFF31"/>
<path d="M62.6903 84.4935H43.9773C43.4997 84.4935 43.1523 84.8843 43.1523 85.3185V89.3997C43.1523 89.7905 43.4563 90.1378 43.8904 90.1378H49.7952C50.2728 90.1378 50.6636 90.5286 50.6636 91.0062V105.247C50.6636 105.681 51.0109 106.029 51.4451 106.029H55.2659C55.7 106.029 56.0474 105.681 56.0474 105.247V90.9628C56.0474 90.4852 56.4382 90.0944 56.9157 90.0944H62.8206C63.2113 90.0944 63.5587 89.7905 63.5587 89.3563V85.3185C63.5587 84.8409 63.1679 84.4501 62.6903 84.4935Z" fill="#EFFF31"/>
<path d="M65.2954 106.029H76.6274C77.0615 106.029 77.4089 105.681 77.4089 105.247V101.079C77.4089 100.688 77.105 100.341 76.6708 100.341H70.8094C70.3318 100.341 69.9411 99.9502 69.9411 99.4726V85.2316C69.9411 84.7974 69.5937 84.4501 69.1595 84.4501H65.3388C64.9046 84.4501 64.5573 84.7974 64.5573 85.2316V105.204C64.5138 105.681 64.8612 106.029 65.2954 106.029Z" fill="#EFFF31"/>
<path d="M31.8628 117.411V112.62H32.4968V116.845H34.8562V117.411H31.8628Z" fill="#EFFF31"/>
<path d="M35.6274 117.411V112.62H39.0914V113.185H36.2614V114.653H38.9116V115.215H36.2614V116.845H39.2025V117.411H35.6274Z" fill="#EFFF31"/>
<path d="M39.5522 117.411L41.392 112.62H42.075L44.0357 117.411H43.3135L42.7547 115.96H40.7515L40.2253 117.411H39.5522ZM40.9345 115.443H42.5586L42.0586 114.117C41.9061 113.714 41.7928 113.382 41.7188 113.123C41.6578 113.43 41.5717 113.735 41.4606 114.038L40.9345 115.443Z" fill="#EFFF31"/>
<path d="M46.784 115.532V114.97L48.8133 114.966V116.744C48.5018 116.992 48.1804 117.18 47.8493 117.306C47.5182 117.43 47.1783 117.492 46.8297 117.492C46.3591 117.492 45.9311 117.392 45.5454 117.192C45.162 116.989 44.8723 116.697 44.6762 116.316C44.4801 115.935 44.3821 115.509 44.3821 115.038C44.3821 114.572 44.479 114.137 44.6729 113.734C44.869 113.329 45.15 113.028 45.516 112.832C45.882 112.636 46.3036 112.538 46.7807 112.538C47.1271 112.538 47.4397 112.595 47.7186 112.708C47.9996 112.819 48.2197 112.975 48.3787 113.176C48.5377 113.376 48.6586 113.637 48.7414 113.96L48.1696 114.117C48.0977 113.873 48.0083 113.681 47.9016 113.542C47.7948 113.402 47.6423 113.291 47.4441 113.208C47.2458 113.123 47.0258 113.081 46.784 113.081C46.4942 113.081 46.2437 113.125 46.0324 113.215C45.821 113.302 45.65 113.417 45.5193 113.561C45.3908 113.705 45.2906 113.863 45.2187 114.035C45.0967 114.331 45.0357 114.653 45.0357 114.999C45.0357 115.426 45.1086 115.783 45.2546 116.071C45.4028 116.358 45.6173 116.572 45.8984 116.711C46.1794 116.851 46.4779 116.92 46.7938 116.92C47.0683 116.92 47.3362 116.868 47.5977 116.764C47.8591 116.657 48.0574 116.544 48.1924 116.424V115.532H46.784Z" fill="#EFFF31"/>
<path d="M52.8949 112.62H53.5289V115.388C53.5289 115.869 53.4744 116.252 53.3655 116.535C53.2566 116.818 53.0594 117.049 52.774 117.228C52.4908 117.404 52.1182 117.492 51.6564 117.492C51.2076 117.492 50.8405 117.415 50.5551 117.26C50.2697 117.106 50.066 116.882 49.944 116.59C49.822 116.296 49.761 115.895 49.761 115.388V112.62H50.395V115.385C50.395 115.801 50.4331 116.108 50.5094 116.306C50.5878 116.502 50.7207 116.654 50.908 116.76C51.0976 116.867 51.3285 116.92 51.6008 116.92C52.0671 116.92 52.3993 116.815 52.5975 116.604C52.7958 116.392 52.8949 115.986 52.8949 115.385V112.62Z" fill="#EFFF31"/>
<path d="M54.6008 117.411V112.62H58.0647V113.185H55.2347V114.653H57.885V115.215H55.2347V116.845H58.1758V117.411H54.6008Z" fill="#EFFF31"/>
<path d="M38.0725 71.1208C36.8134 71.1208 36.5095 71.8155 36.5095 72.38V72.4668C36.5095 73.0312 36.8134 73.7259 38.0725 73.7259C39.3316 73.7259 39.6355 72.9878 39.6355 72.4668V72.38C39.6355 71.7721 39.375 71.1208 38.0725 71.1208Z" fill="#EFFF31"/>
<path d="M14.9742 72.901H16.6241L15.7992 71.034L14.9742 72.901Z" fill="#EFFF31"/>
<path d="M59.2169 72.901H60.8668L60.0418 71.034L59.2169 72.901Z" fill="#EFFF31"/>
<path d="M0.733276 67.4304V78.0243H89.3053V67.4304H0.733276ZM11.1969 74.6811H9.98124V71.7287L8.59188 74.6811H7.59327L6.2039 71.7287V74.6811H4.98821V70.1657H6.63808L8.07086 73.2483L9.54706 70.1657H11.1101V74.6811H11.1969ZM17.4057 74.6811L17.0583 73.8562H14.6269L14.2796 74.6811H13.0205L15.0177 70.1657H16.711L18.795 74.6811H17.4057ZM25.655 74.6811H24.4393L21.7474 71.7287V74.6811H20.5317V70.1657H21.8343L24.4827 73.0747V70.1657H25.6984L25.655 74.6811ZM33.2531 74.6811H32.2545C32.2111 74.464 32.1677 74.2469 32.1243 74.0733C31.7335 74.5509 31.1257 74.8114 30.4744 74.7679H30.3876C28.3903 74.7679 27.7825 73.5088 27.7825 72.5102V72.2931C27.7825 71.3379 28.3469 70.0788 30.431 70.0788H30.6481C32.6019 70.0788 33.2531 70.9472 33.2531 71.6853H31.9506C31.9072 71.555 31.7335 71.0774 30.5612 71.0774C29.3889 71.0774 29.1284 71.6853 29.1284 72.2931V72.38C29.1284 72.9878 29.5192 73.6825 30.6046 73.6825C31.6901 73.6825 31.9072 73.1181 31.9072 72.9878H30.6915V72.1629H33.2965L33.2531 74.6811ZM40.938 72.5102C40.938 73.4654 40.3302 74.7679 38.2027 74.7679H37.9422C35.8148 74.7679 35.2069 73.4654 35.2069 72.5102V72.3366C35.2069 71.338 35.8148 70.1223 37.9422 70.1223H38.2462C40.3736 70.1223 40.9815 71.3814 40.9815 72.3366L40.938 72.5102ZM45.4969 74.2035C45.0193 74.2035 44.6286 73.8128 44.6286 73.3352C44.6286 72.8576 45.0193 72.4668 45.4969 72.4668C45.9745 72.4668 46.3653 72.8576 46.3653 73.3352C46.3653 73.7693 45.9745 74.1601 45.4969 74.2035ZM46.1482 71.2077C46.1482 70.8169 46.4521 70.513 46.8429 70.513C47.2336 70.513 47.5375 70.8169 47.5375 71.2077C47.5375 71.5985 47.2336 71.9024 46.8429 71.9024C46.4521 71.9024 46.1048 71.5985 46.1482 71.2077C46.1048 71.2077 46.1048 71.2077 46.1482 71.2077ZM47.9717 74.2035C47.4941 74.2035 47.1034 73.8128 47.1034 73.3352C47.1034 72.8576 47.4941 72.4668 47.9717 72.4668C48.4493 72.4668 48.8401 72.8576 48.8401 73.3352C48.8401 73.7693 48.4493 74.1601 47.9717 74.2035ZM56.2211 71.2077H54.4844V74.6811H53.2253V71.2077H51.4885V70.1657H56.2211V71.2077ZM61.6483 74.6811L61.2575 73.8562H58.8261L58.4788 74.6811H57.2197L59.2169 70.1657H60.9102L62.9942 74.6811H61.6483ZM69.9411 74.6811H68.7254L66.0335 71.7287V74.6811H64.8178V70.1657H66.1203L68.7688 73.0747V70.1657H69.9845L69.9411 74.6811ZM77.4957 74.6811H76.4971C76.4537 74.464 76.4103 74.2469 76.3235 74.0733C75.9327 74.5509 75.3248 74.8114 74.6736 74.7679H74.5867C72.5895 74.7679 71.9817 73.5088 71.9817 72.5102V72.2931C71.9817 71.3379 72.5895 70.0788 74.6302 70.0788H74.8473C76.801 70.0788 77.4523 70.9472 77.4523 71.6853H76.1498C76.1064 71.555 75.9327 71.0774 74.7604 71.0774C73.5881 71.0774 73.2842 71.6853 73.2842 72.2931V72.38C73.2842 72.9878 73.675 73.6825 74.7604 73.6825C75.8459 73.6825 76.063 73.1181 76.1064 72.9878H74.8907V72.1629H77.4957V74.6811ZM85.1807 72.5102C85.1807 73.4654 84.5728 74.7679 82.4454 74.7679H82.1848C80.0574 74.7679 79.4495 73.4654 79.4495 72.5102V72.2931C79.4495 71.2945 80.0574 70.0788 82.1848 70.0788H82.4454C84.5728 70.0788 85.1807 71.3379 85.1807 72.2931V72.5102Z" fill="#EFFF31"/>
<path d="M82.3585 71.1208C81.0994 71.1208 80.7954 71.8155 80.7954 72.38V72.4668C80.7954 73.0312 81.0994 73.7259 82.3585 73.7259C83.6176 73.7259 83.9215 72.9878 83.9215 72.4668V72.38C83.8781 71.7721 83.6176 71.1208 82.3585 71.1208Z" fill="#EFFF31"/>
<path d="M7.33276 31.0898V67.4304" stroke="#EFFF31" stroke-width="0.5" stroke-miterlimit="10"/>
<path d="M11.7614 29.0057V67.4303" stroke="#EFFF31" stroke-width="0.5" stroke-miterlimit="10"/>
<path d="M16.1899 26.8348V67.4304" stroke="#EFFF31" stroke-width="0.5" stroke-miterlimit="10"/>
<path d="M20.6185 24.6639V67.4304" stroke="#EFFF31" stroke-width="0.5" stroke-miterlimit="10"/>
<path d="M25.0472 48.9778V67.4304" stroke="#EFFF31" stroke-width="0.5" stroke-miterlimit="10"/>
<path d="M29.4758 52.4512V67.4303" stroke="#EFFF31" stroke-width="0.5" stroke-miterlimit="10"/>
<path d="M33.9044 56.793V67.4304" stroke="#EFFF31" stroke-width="0.5" stroke-miterlimit="10"/>
<path d="M38.3764 56.793V67.4304" stroke="#EFFF31" stroke-width="0.5" stroke-miterlimit="10"/>
<path d="M42.805 56.793V67.4304" stroke="#EFFF31" stroke-width="0.5" stroke-miterlimit="10"/>
<path d="M47.2336 61.1348V67.4303" stroke="#EFFF31" stroke-width="0.5" stroke-miterlimit="10"/>
<path d="M51.6622 58.9639V67.4304" stroke="#EFFF31" stroke-width="0.5" stroke-miterlimit="10"/>
<path d="M56.0908 56.793V67.4304" stroke="#EFFF31" stroke-width="0.5" stroke-miterlimit="10"/>
<path d="M60.5194 20.7563V67.4304" stroke="#EFFF31" stroke-width="0.5" stroke-miterlimit="10"/>
<path d="M64.948 22.9272V67.4304" stroke="#EFFF31" stroke-width="0.5" stroke-miterlimit="10"/>
<path d="M69.3766 24.6639V67.4304" stroke="#EFFF31" stroke-width="0.5" stroke-miterlimit="10"/>
<path d="M73.8052 26.8348V67.4304" stroke="#EFFF31" stroke-width="0.5" stroke-miterlimit="10"/>
<path d="M78.2338 29.0057V67.4303" stroke="#EFFF31" stroke-width="0.5" stroke-miterlimit="10"/>
<path d="M82.6624 31.0898V67.4304" stroke="#EFFF31" stroke-width="0.5" stroke-miterlimit="10"/>
<path d="M44.5851 39.2523C46.0718 39.2523 47.277 38.0471 47.277 36.5604C47.277 35.0737 46.0718 33.8685 44.5851 33.8685C43.0985 33.8685 41.8932 35.0737 41.8932 36.5604C41.8932 38.0471 43.0985 39.2523 44.5851 39.2523Z" fill="#EFFF31"/>
<path d="M48.3625 41.4666C47.2336 41.4666 46.3218 42.3783 46.3218 43.4638C46.3218 44.5926 47.2336 45.5044 48.3191 45.5044C49.4479 45.5044 50.3597 44.5926 50.3597 43.5072C50.4031 42.3783 49.4913 41.4666 48.3625 41.4666Z" fill="#EFFF31"/>
<path d="M40.7643 40.8153C39.2881 40.8153 38.0724 41.9876 38.0724 43.5072C38.0724 44.9834 39.2447 46.1991 40.7643 46.1991C42.284 46.1991 43.4562 45.0268 43.4562 43.5072C43.4128 42.031 42.2405 40.8153 40.7643 40.8153Z" fill="#EFFF31"/>
<path d="M64.2533 33.8685C62.1258 30.1345 58.3485 23.0574 58.609 18.9328L57.4367 18.4118L55.5264 19.9748C52.8345 22.1457 52.2266 25.6191 52.2266 25.6191L51.7924 25.7928C41.459 16.5882 43.7602 4.64836 43.8036 4.69177C43.8036 4.69177 44.4114 1.82621 45.5403 1.13153L44.889 0.653931C44.889 0.653931 42.1103 1.39203 40.8078 2.26038C32.9926 7.03633 27.739 13.8529 25.134 22.4496C23.267 28.6583 23.1368 35.8657 25.6984 44.2019L25.2642 44.6795C24.1354 43.9848 23.1368 43.1598 22.2684 42.2046L21.3132 43.1164C22.1816 45.8083 26.6102 63.2188 47.2336 63.2188C62.4732 63.2188 67.7701 50.3237 67.7701 45.461C67.8136 40.164 66.0769 37.1248 64.2533 33.8685ZM56.4816 51.2789C55.8737 51.7999 55.2659 52.2341 54.6146 52.6683C43.4128 60.0059 33.1228 50.7579 32.2111 49.8896L33.036 48.8475C34.4688 49.4988 35.9884 49.7593 37.5514 49.6725L37.812 49.1081C37.3778 48.6739 36.9436 48.2397 36.5528 47.7621C26.7839 36.2998 32.0374 19.3235 37.5949 14.8949L38.2461 15.1989C41.4156 31.3936 54.0067 34.9973 54.0067 34.9973H54.0502C54.2238 32.783 54.658 31.9147 54.658 31.9147L55.5698 31.6976C55.5698 31.6976 56.0474 34.3026 57.9577 38.601C60.3891 42.6388 59.7813 48.1094 56.4816 51.2789Z" fill="#EFFF31"/>
</svg>
