<svg width="90" height="141" viewBox="0 0 90 141" fill="none" xmlns="http://www.w3.org/2000/svg">
<path d="M47.5858 139.2C45.632 140.415 44.286 140.415 42.3757 139.2C30.566 131.819 18.6696 124.481 6.72974 117.274C6.12189 116.97 5.38379 116.97 4.77594 117.274C3.21291 118.055 1.73671 119.054 0 120.096L0.781518 74.8548L2.51823 74.7245L8.50986 110.37L44.4163 130.343H45.5451L81.4516 110.37L87.4432 74.7245L89.1799 74.8548L89.9614 120.096C88.2247 119.054 86.7485 118.055 85.1421 117.274C84.5342 116.97 83.7961 116.97 83.1883 117.274C71.2484 124.525 47.5858 139.2 47.5858 139.2Z" fill="#EC0C4B"/>
<path d="M58.5271 21.3208L87.0959 34.3895V67.7777H2.86559V34.3461L26.5282 23.5351V47.7187L26.7453 48.1529L31.0871 57.0535L31.6515 58.2258L32.9106 58.3126L56.443 59.5283L57.6587 59.6152L58.3534 58.6165L67.0803 45.982L67.9053 44.8097L67.1672 43.594L57.0074 27.1821L55.8352 25.3152L58.5271 21.3208ZM57.7455 18.5854L50.9724 28.6583L52.7091 31.7844L55.1405 28.3978L65.3002 44.8097L56.5733 57.4443L33.0409 56.2286L28.6991 47.2845V21.2339L30.5226 19.367L0.694702 32.9567V69.9051H89.2668V32.9567L57.7455 18.5854Z" fill="#EC0C4B"/>
<path d="M40.5954 84.4935H14.0672C13.2423 84.4935 12.5476 85.1882 12.5476 86.0131V105.291C12.5476 105.725 12.8949 106.072 13.3291 106.072H17.1499C17.5841 106.072 17.9314 105.725 17.9314 105.291V90.1812H23.7928C24.2704 90.1812 24.6611 90.572 24.6611 91.0496V105.291C24.6611 105.725 25.0085 106.072 25.4427 106.072H29.2634C29.6976 106.072 30.0449 105.725 30.0449 105.291V90.1812H35.7761C36.2537 90.1812 36.6444 90.572 36.6444 91.0496V105.291C36.6444 105.725 36.9918 106.072 37.4259 106.072H41.2467C41.6809 106.072 42.0282 105.725 42.0282 105.291V86.0131C42.115 85.1448 41.4204 84.4935 40.5954 84.4935Z" fill="#EC0C4B"/>
<path d="M62.6517 84.4935H43.9387C43.4611 84.4935 43.1138 84.8843 43.1138 85.3185V89.3997C43.1138 89.7905 43.4177 90.1378 43.8519 90.1378H49.7567C50.2343 90.1378 50.625 90.5286 50.625 91.0062V105.247C50.625 105.681 50.9724 106.029 51.4065 106.029H55.2273C55.6615 106.029 56.0088 105.681 56.0088 105.247V90.9628C56.0088 90.4852 56.3996 90.0944 56.8772 90.0944H62.782C63.1727 90.0944 63.5201 89.7905 63.5201 89.3563V85.3185C63.5201 84.8409 63.1293 84.4501 62.6517 84.4935Z" fill="#EC0C4B"/>
<path d="M65.2568 106.029H76.5888C77.023 106.029 77.3703 105.681 77.3703 105.247V101.079C77.3703 100.688 77.0664 100.341 76.6322 100.341H70.7708C70.2932 100.341 69.9025 99.9502 69.9025 99.4726V85.2316C69.9025 84.7974 69.5551 84.4501 69.121 84.4501H65.3002C64.866 84.4501 64.5187 84.7974 64.5187 85.2316V105.204C64.4753 105.681 64.8226 106.029 65.2568 106.029Z" fill="#EC0C4B"/>
<path d="M31.8242 117.411V112.62H32.4582V116.845H34.8176V117.411H31.8242Z" fill="#EC0C4B"/>
<path d="M35.5888 117.411V112.62H39.0528V113.185H36.2228V114.653H38.873V115.215H36.2228V116.845H39.1639V117.411H35.5888Z" fill="#EC0C4B"/>
<path d="M39.5135 117.411L41.3534 112.62H42.0364L43.9971 117.411H43.2749L42.7161 115.96H40.7129L40.1867 117.411H39.5135ZM40.8959 115.443H42.52L42.02 114.117C41.8675 113.714 41.7542 113.382 41.6802 113.123C41.6192 113.43 41.5331 113.735 41.422 114.038L40.8959 115.443Z" fill="#EC0C4B"/>
<path d="M46.7454 115.532V114.97L48.7747 114.966V116.744C48.4632 116.992 48.1418 117.18 47.8107 117.306C47.4796 117.43 47.1397 117.492 46.7911 117.492C46.3205 117.492 45.8925 117.392 45.5068 117.192C45.1234 116.989 44.8337 116.697 44.6376 116.316C44.4415 115.935 44.3435 115.509 44.3435 115.038C44.3435 114.572 44.4404 114.137 44.6343 113.734C44.8304 113.329 45.1114 113.028 45.4774 112.832C45.8434 112.636 46.265 112.538 46.7421 112.538C47.0885 112.538 47.4011 112.595 47.68 112.708C47.961 112.819 48.1811 112.975 48.3401 113.175C48.4991 113.376 48.62 113.637 48.7028 113.96L48.131 114.117C48.0591 113.873 47.9697 113.681 47.863 113.541C47.7562 113.402 47.6037 113.291 47.4055 113.208C47.2072 113.123 46.9872 113.081 46.7454 113.081C46.4556 113.081 46.2051 113.125 45.9938 113.215C45.7824 113.302 45.6114 113.417 45.4807 113.561C45.3522 113.705 45.2519 113.863 45.1801 114.035C45.0581 114.331 44.9971 114.653 44.9971 114.999C44.9971 115.426 45.07 115.783 45.216 116.071C45.3641 116.358 45.5787 116.572 45.8598 116.711C46.1408 116.851 46.4393 116.92 46.7552 116.92C47.0297 116.92 47.2976 116.868 47.5591 116.764C47.8205 116.657 48.0188 116.544 48.1538 116.424V115.532H46.7454Z" fill="#EC0C4B"/>
<path d="M52.8563 112.62H53.4903V115.388C53.4903 115.869 53.4358 116.252 53.3269 116.535C53.218 116.818 53.0208 117.049 52.7354 117.228C52.4522 117.404 52.0796 117.492 51.6178 117.492C51.169 117.492 50.8019 117.415 50.5165 117.26C50.2311 117.106 50.0274 116.882 49.9054 116.59C49.7834 116.296 49.7224 115.895 49.7224 115.388V112.62H50.3564V115.385C50.3564 115.801 50.3945 116.108 50.4708 116.306C50.5492 116.502 50.6821 116.654 50.8694 116.76C51.059 116.867 51.2899 116.92 51.5622 116.92C52.0284 116.92 52.3607 116.815 52.5589 116.603C52.7572 116.392 52.8563 115.986 52.8563 115.385V112.62Z" fill="#EC0C4B"/>
<path d="M54.5621 117.411V112.62H58.0261V113.185H55.1961V114.653H57.8464V115.215H55.1961V116.845H58.1372V117.411H54.5621Z" fill="#EC0C4B"/>
<path d="M38.0339 71.1208C36.7747 71.1208 36.4708 71.8155 36.4708 72.38V72.4668C36.4708 73.0312 36.7747 73.7259 38.0339 73.7259C39.293 73.7259 39.5969 72.9878 39.5969 72.4668V72.38C39.5969 71.7721 39.3364 71.1208 38.0339 71.1208Z" fill="#EC0C4B"/>
<path d="M14.9357 72.901H16.5855L15.7606 71.034L14.9357 72.901Z" fill="#EC0C4B"/>
<path d="M59.1782 72.901H60.8281L60.0032 71.034L59.1782 72.901Z" fill="#EC0C4B"/>
<path d="M0.694702 67.4304V78.0243H89.2668V67.4304H0.694702ZM11.1584 74.6811H9.94267V71.7287L8.5533 74.6811H7.5547L6.16533 71.7287V74.6811H4.94963V70.1657H6.59951L8.03229 73.2483L9.50849 70.1657H11.0715V74.6811H11.1584ZM17.3671 74.6811L17.0198 73.8562H14.5884L14.241 74.6811H12.9819L14.9791 70.1657H16.6724L18.7565 74.6811H17.3671ZM25.6165 74.6811H24.4008L21.7089 71.7287V74.6811H20.4932V70.1657H21.7957L24.4442 73.0747V70.1657H25.6599L25.6165 74.6811ZM33.2145 74.6811H32.2159C32.1725 74.464 32.1291 74.2469 32.0857 74.0733C31.6949 74.5509 31.0871 74.8114 30.4358 74.7679H30.349C28.3518 74.7679 27.7439 73.5088 27.7439 72.5102V72.2931C27.7439 71.3379 28.3083 70.0788 30.3924 70.0788H30.6095C32.5633 70.0788 33.2145 70.9472 33.2145 71.6853H31.912C31.8686 71.555 31.6949 71.0774 30.5226 71.0774C29.3504 71.0774 29.0899 71.6853 29.0899 72.2931V72.38C29.0899 72.9878 29.4806 73.6825 30.5661 73.6825C31.6515 73.6825 31.8686 73.1181 31.8686 72.9878H30.6529V72.1629H33.258L33.2145 74.6811ZM40.8995 72.5102C40.8995 73.4654 40.2916 74.7679 38.1642 74.7679H37.9037C35.7762 74.7679 35.1683 73.4654 35.1683 72.5102V72.3366C35.1683 71.338 35.7762 70.1223 37.9037 70.1223H38.2076C40.335 70.1223 40.9429 71.3814 40.9429 72.3366L40.8995 72.5102ZM45.4583 74.2035C44.9807 74.2035 44.59 73.8128 44.59 73.3352C44.59 72.8576 44.9807 72.4668 45.4583 72.4668C45.9359 72.4668 46.3267 72.8576 46.3267 73.3352C46.3267 73.7693 45.9359 74.1601 45.4583 74.2035ZM46.1096 71.2077C46.1096 70.8169 46.4135 70.513 46.8043 70.513C47.195 70.513 47.499 70.8169 47.499 71.2077C47.499 71.5985 47.195 71.9024 46.8043 71.9024C46.4135 71.9024 46.0662 71.5985 46.1096 71.2077C46.0662 71.2077 46.0662 71.2077 46.1096 71.2077ZM47.9331 74.2035C47.4555 74.2035 47.0648 73.8128 47.0648 73.3352C47.0648 72.8576 47.4555 72.4668 47.9331 72.4668C48.4107 72.4668 48.8015 72.8576 48.8015 73.3352C48.8015 73.7693 48.4107 74.1601 47.9331 74.2035ZM56.1825 71.2077H54.4458V74.6811H53.1867V71.2077H51.45V70.1657H56.1825V71.2077ZM61.6097 74.6811L61.2189 73.8562H58.7876L58.4402 74.6811H57.1811L59.1783 70.1657H60.8716L62.9557 74.6811H61.6097ZM69.9025 74.6811H68.6868L65.9949 71.7287V74.6811H64.7792V70.1657H66.0817L68.7302 73.0747V70.1657H69.9459L69.9025 74.6811ZM77.4572 74.6811H76.4586C76.4151 74.464 76.3717 74.2469 76.2849 74.0733C75.8941 74.5509 75.2863 74.8114 74.635 74.7679H74.5482C72.551 74.7679 71.9431 73.5088 71.9431 72.5102V72.2931C71.9431 71.3379 72.551 70.0788 74.5916 70.0788H74.8087C76.7625 70.0788 77.4137 70.9472 77.4137 71.6853H76.1112C76.0678 71.555 75.8941 71.0774 74.7218 71.0774C73.5496 71.0774 73.2456 71.6853 73.2456 72.2931V72.38C73.2456 72.9878 73.6364 73.6825 74.7218 73.6825C75.8073 73.6825 76.0244 73.1181 76.0678 72.9878H74.8521V72.1629H77.4572V74.6811ZM85.1421 72.5102C85.1421 73.4654 84.5342 74.7679 82.4068 74.7679H82.1463C80.0188 74.7679 79.4109 73.4654 79.4109 72.5102V72.2931C79.4109 71.2945 80.0188 70.0788 82.1463 70.0788H82.4068C84.5342 70.0788 85.1421 71.3379 85.1421 72.2931V72.5102Z" fill="#EC0C4B"/>
<path d="M82.32 71.1208C81.0609 71.1208 80.757 71.8155 80.757 72.38V72.4668C80.757 73.0312 81.0609 73.7259 82.32 73.7259C83.5791 73.7259 83.883 72.9878 83.883 72.4668V72.38C83.8396 71.7721 83.5791 71.1208 82.32 71.1208Z" fill="#EC0C4B"/>
<path d="M7.29419 31.0897V67.4303" stroke="#FF356E" stroke-width="0.5" stroke-miterlimit="10"/>
<path d="M11.7228 29.0057V67.4303" stroke="#FF356E" stroke-width="0.5" stroke-miterlimit="10"/>
<path d="M16.1514 26.8348V67.4303" stroke="#FF356E" stroke-width="0.5" stroke-miterlimit="10"/>
<path d="M20.58 24.6639V67.4304" stroke="#FF356E" stroke-width="0.5" stroke-miterlimit="10"/>
<path d="M25.0085 48.9778V67.4304" stroke="#FF356E" stroke-width="0.5" stroke-miterlimit="10"/>
<path d="M29.4373 52.4512V67.4303" stroke="#FF356E" stroke-width="0.5" stroke-miterlimit="10"/>
<path d="M33.8658 56.793V67.4304" stroke="#FF356E" stroke-width="0.5" stroke-miterlimit="10"/>
<path d="M38.3379 56.793V67.4304" stroke="#FF356E" stroke-width="0.5" stroke-miterlimit="10"/>
<path d="M42.7664 56.793V67.4304" stroke="#FF356E" stroke-width="0.5" stroke-miterlimit="10"/>
<path d="M47.1951 61.1348V67.4303" stroke="#FF356E" stroke-width="0.5" stroke-miterlimit="10"/>
<path d="M51.6235 58.9639V67.4304" stroke="#FF356E" stroke-width="0.5" stroke-miterlimit="10"/>
<path d="M56.0522 56.793V67.4304" stroke="#FF356E" stroke-width="0.5" stroke-miterlimit="10"/>
<path d="M60.4808 20.7563V67.4304" stroke="#FF356E" stroke-width="0.5" stroke-miterlimit="10"/>
<path d="M64.9094 22.9272V67.4303" stroke="#FF356E" stroke-width="0.5" stroke-miterlimit="10"/>
<path d="M69.338 24.6639V67.4304" stroke="#FF356E" stroke-width="0.5" stroke-miterlimit="10"/>
<path d="M73.7666 26.8348V67.4303" stroke="#FF356E" stroke-width="0.5" stroke-miterlimit="10"/>
<path d="M78.1952 29.0057V67.4303" stroke="#FF356E" stroke-width="0.5" stroke-miterlimit="10"/>
<path d="M82.6238 31.0897V67.4303" stroke="#FF356E" stroke-width="0.5" stroke-miterlimit="10"/>
<path d="M44.5465 39.2523C46.0332 39.2523 47.2384 38.0471 47.2384 36.5604C47.2384 35.0737 46.0332 33.8685 44.5465 33.8685C43.0598 33.8685 41.8546 35.0737 41.8546 36.5604C41.8546 38.0471 43.0598 39.2523 44.5465 39.2523Z" fill="#EC0C4B"/>
<path d="M48.324 41.4666C47.1951 41.4666 46.2833 42.3783 46.2833 43.4638C46.2833 44.5926 47.1951 45.5044 48.2805 45.5044C49.4094 45.5044 50.3212 44.5926 50.3212 43.5072C50.3646 42.3783 49.4528 41.4666 48.324 41.4666Z" fill="#EC0C4B"/>
<path d="M40.7258 40.8153C39.2496 40.8153 38.0339 41.9876 38.0339 43.5072C38.0339 44.9834 39.2062 46.1991 40.7258 46.1991C42.2455 46.1991 43.4177 45.0268 43.4177 43.5072C43.3743 42.031 42.202 40.8153 40.7258 40.8153Z" fill="#EC0C4B"/>
<path d="M64.2147 33.8685C62.0873 30.1345 58.3099 23.0574 58.5704 18.9328L57.3982 18.4118L55.4878 19.9748C52.7959 22.1457 52.188 25.6191 52.188 25.6191L51.7539 25.7928C41.4205 16.5882 43.7216 4.64836 43.765 4.69177C43.765 4.69177 44.3729 1.82621 45.5017 1.13153L44.8505 0.653931C44.8505 0.653931 42.0717 1.39203 40.7692 2.26038C32.954 7.03633 27.7005 13.8529 25.0954 22.4496C23.2285 28.6583 23.0982 35.8657 25.6598 44.2019L25.2257 44.6795C24.0968 43.9848 23.0982 43.1598 22.2298 42.2046L21.2747 43.1164C22.143 45.8083 26.5716 63.2188 47.195 63.2188C62.4346 63.2188 67.7316 50.3237 67.7316 45.461C67.775 40.164 66.0383 37.1248 64.2147 33.8685ZM56.443 51.2789C55.8351 51.7999 55.2273 52.2341 54.576 52.6683C43.3743 60.0059 33.0843 50.7579 32.1725 49.8896L32.9974 48.8475C34.4302 49.4988 35.9498 49.7593 37.5129 49.6725L37.7734 49.1081C37.3392 48.6739 36.905 48.2397 36.5143 47.7621C26.7453 36.2998 31.9988 19.3235 37.5563 14.8949L38.2076 15.1989C41.377 31.3936 53.9682 34.9973 53.9682 34.9973H54.0116C54.1853 32.783 54.6194 31.9147 54.6194 31.9147L55.5312 31.6976C55.5312 31.6976 56.0088 34.3026 57.9192 38.601C60.3506 42.6388 59.7427 48.1094 56.443 51.2789Z" fill="#EC0C4B"/>
</svg>
