<svg width="90" height="140" viewBox="0 0 90 140" fill="none" xmlns="http://www.w3.org/2000/svg">
<path d="M1.81934 69.5069V34.2951L27.6529 22.4855V48.1454L32.3854 57.8275L57.1335 59.13L66.5985 45.41L55.2231 27.0444L52.8351 30.3441L52.2707 29.3021L58.1755 20.5751L88.1771 34.2951V69.5069H1.81934Z" fill="url(#paint0_linear)"/>
<path d="M47.6248 139.019C45.671 140.234 44.3251 140.234 42.4147 139.019C30.6051 131.638 18.7087 124.3 6.7688 117.093C6.16095 116.789 5.42285 116.789 4.81501 117.093C3.25197 117.874 1.77577 118.873 0.0390625 119.915L0.820581 74.6736L2.55729 74.5433L8.54893 110.189L44.4553 130.161H45.5842L81.4906 110.189L87.4823 74.5433L89.219 74.6736L90.0005 119.915C88.2638 118.873 86.7876 117.874 85.1811 117.093C84.5733 116.789 83.8352 116.789 83.2273 117.093C71.2875 124.343 47.6248 139.019 47.6248 139.019Z" fill="#13B5F0"/>
<path d="M58.5657 21.1395L87.1346 34.2083V67.5965H2.90428V34.1649L26.5669 23.3539V47.5375L26.784 47.9717L31.1258 56.8723L31.6902 58.0446L32.9493 58.1314L56.4817 59.3471L57.6974 59.4339L58.3921 58.4353L67.119 45.8008L67.944 44.6285L67.2059 43.4128L57.0461 27.0009L55.8739 25.134L58.5657 21.1395ZM57.7842 18.4042L51.0111 28.4771L52.7478 31.6032L55.1792 28.2166L65.3389 44.6285L56.6119 57.2631L33.0796 56.0474L28.7378 47.1033V21.0527L30.5613 19.1858L0.733398 32.7755V69.7239H89.3055V32.7755L57.7842 18.4042Z" fill="#13B5F0"/>
<path d="M40.6347 84.3123H14.1065C13.2816 84.3123 12.5869 85.007 12.5869 85.8319V105.109C12.5869 105.544 12.9343 105.891 13.3684 105.891H17.1892C17.6234 105.891 17.9707 105.544 17.9707 105.109V90H23.8321C24.3097 90 24.7004 90.3908 24.7004 90.8684V105.109C24.7004 105.544 25.0478 105.891 25.482 105.891H29.3027C29.7369 105.891 30.0842 105.544 30.0842 105.109V90H35.8154C36.293 90 36.6837 90.3908 36.6837 90.8684V105.109C36.6837 105.544 37.0311 105.891 37.4652 105.891H41.286C41.7202 105.891 42.0675 105.544 42.0675 105.109V85.8319C42.1544 84.9636 41.4597 84.3123 40.6347 84.3123Z" fill="#13B5F0"/>
<path d="M62.6903 84.3123H43.9773C43.4997 84.3123 43.1523 84.7031 43.1523 85.1373V89.2185C43.1523 89.6093 43.4563 89.9566 43.8904 89.9566H49.7952C50.2728 89.9566 50.6636 90.3474 50.6636 90.825V105.066C50.6636 105.5 51.0109 105.847 51.4451 105.847H55.2659C55.7 105.847 56.0474 105.5 56.0474 105.066V90.7816C56.0474 90.304 56.4382 89.9132 56.9157 89.9132H62.8206C63.2113 89.9132 63.5587 89.6093 63.5587 89.1751V85.1373C63.5587 84.6597 63.1679 84.2689 62.6903 84.3123Z" fill="#13B5F0"/>
<path d="M65.2955 105.847H76.6275C77.0617 105.847 77.409 105.5 77.409 105.066V100.898C77.409 100.507 77.1051 100.16 76.6709 100.16H70.8095C70.3319 100.16 69.9412 99.769 69.9412 99.2914V85.0504C69.9412 84.6162 69.5938 84.2689 69.1597 84.2689H65.3389C64.9047 84.2689 64.5574 84.6162 64.5574 85.0504V105.023C64.514 105.5 64.8613 105.847 65.2955 105.847Z" fill="#13B5F0"/>
<path d="M31.8633 117.229V112.439H32.4973V116.664H34.8567V117.229H31.8633Z" fill="#13B5F0"/>
<path d="M35.6279 117.229V112.439H39.0918V113.004H36.2619V114.471H38.9121V115.033H36.2619V116.664H39.2029V117.229H35.6279Z" fill="#13B5F0"/>
<path d="M39.5526 117.229L41.3924 112.439H42.0754L44.0361 117.229H43.3139L42.7551 115.778H40.7519L40.2258 117.229H39.5526ZM40.9349 115.262H42.5591L42.0591 113.935C41.9066 113.532 41.7933 113.201 41.7192 112.942C41.6582 113.249 41.5722 113.554 41.4611 113.857L40.9349 115.262Z" fill="#13B5F0"/>
<path d="M46.7844 115.35V114.788L48.8138 114.785V116.563C48.5022 116.811 48.1809 116.998 47.8498 117.125C47.5186 117.249 47.1788 117.311 46.8302 117.311C46.3596 117.311 45.9315 117.211 45.5459 117.01C45.1625 116.808 44.8727 116.516 44.6766 116.135C44.4806 115.753 44.3825 115.328 44.3825 114.857C44.3825 114.391 44.4795 113.956 44.6734 113.553C44.8695 113.148 45.1505 112.847 45.5165 112.651C45.8825 112.455 46.3041 112.357 46.7812 112.357C47.1276 112.357 47.4402 112.414 47.719 112.527C48.0001 112.638 48.2201 112.794 48.3792 112.994C48.5382 113.195 48.6591 113.456 48.7419 113.779L48.17 113.935C48.0981 113.691 48.0088 113.5 47.902 113.36C47.7953 113.221 47.6428 113.11 47.4445 113.027C47.2463 112.942 47.0263 112.899 46.7844 112.899C46.4947 112.899 46.2441 112.944 46.0328 113.033C45.8215 113.121 45.6505 113.236 45.5198 113.38C45.3912 113.524 45.291 113.682 45.2191 113.854C45.0971 114.15 45.0361 114.471 45.0361 114.818C45.0361 115.245 45.1091 115.602 45.2551 115.89C45.4032 116.177 45.6178 116.391 45.8988 116.53C46.1799 116.67 46.4783 116.739 46.7942 116.739C47.0687 116.739 47.3367 116.687 47.5981 116.582C47.8596 116.476 48.0578 116.362 48.1929 116.243V115.35H46.7844Z" fill="#13B5F0"/>
<path d="M52.8954 112.439H53.5293V115.207C53.5293 115.688 53.4749 116.07 53.3659 116.354C53.257 116.637 53.0599 116.868 52.7745 117.046C52.4912 117.223 52.1187 117.311 51.6568 117.311C51.2081 117.311 50.841 117.234 50.5556 117.079C50.2702 116.924 50.0665 116.701 49.9445 116.409C49.8225 116.115 49.7615 115.714 49.7615 115.207V112.439H50.3954V115.203C50.3954 115.619 50.4336 115.927 50.5098 116.125C50.5882 116.321 50.7211 116.472 50.9085 116.579C51.098 116.686 51.329 116.739 51.6013 116.739C52.0675 116.739 52.3997 116.634 52.598 116.422C52.7962 116.211 52.8954 115.805 52.8954 115.203V112.439Z" fill="#13B5F0"/>
<path d="M54.6012 117.229V112.439H58.0652V113.004H55.2352V114.471H57.8854V115.033H55.2352V116.664H58.1763V117.229H54.6012Z" fill="#13B5F0"/>
<path d="M38.0728 70.9396C36.8137 70.9396 36.5098 71.6343 36.5098 72.1987V72.2856C36.5098 72.85 36.8137 73.5447 38.0728 73.5447C39.3319 73.5447 39.6358 72.8066 39.6358 72.2856V72.1987C39.6358 71.5909 39.3753 70.9396 38.0728 70.9396Z" fill="#13B5F0"/>
<path d="M14.9746 72.7197H16.6245L15.7995 70.8528L14.9746 72.7197Z" fill="#13B5F0"/>
<path d="M59.2168 72.7197H60.8667L60.0417 70.8528L59.2168 72.7197Z" fill="#13B5F0"/>
<path d="M0.733398 67.2491V77.8431H89.3055V67.2491H0.733398ZM11.1971 74.4999H9.98136V71.5475L8.592 74.4999H7.59339L6.20403 71.5475V74.4999H4.98833V69.9845H6.6382L8.07099 73.0671L9.54719 69.9845H11.1102V74.4999H11.1971ZM17.4058 74.4999L17.0584 73.675H14.6271L14.2797 74.4999H13.0206L15.0178 69.9845H16.7111L18.7952 74.4999H17.4058ZM25.6551 74.4999H24.4395L21.7476 71.5475V74.4999H20.5319V69.9845H21.8344L24.4829 72.8934V69.9845H25.6986L25.6551 74.4999ZM33.2532 74.4999H32.2546C32.2112 74.2828 32.1678 74.0657 32.1244 73.8921C31.7336 74.3696 31.1258 74.6301 30.4745 74.5867H30.3877C28.3905 74.5867 27.7826 73.3276 27.7826 72.329V72.1119C27.7826 71.1567 28.347 69.8976 30.4311 69.8976H30.6482C32.602 69.8976 33.2532 70.766 33.2532 71.5041H31.9507C31.9073 71.3738 31.7336 70.8962 30.5613 70.8962C29.3891 70.8962 29.1286 71.5041 29.1286 72.1119V72.1988C29.1286 72.8066 29.5193 73.5013 30.6048 73.5013C31.6902 73.5013 31.9073 72.9369 31.9073 72.8066H30.6916V71.9817H33.2967L33.2532 74.4999ZM40.9382 72.329C40.9382 73.2842 40.3303 74.5867 38.2029 74.5867H37.9424C35.8149 74.5867 35.207 73.2842 35.207 72.329V72.1553C35.207 71.1567 35.8149 69.941 37.9424 69.941H38.2463C40.3737 69.941 40.9816 71.2002 40.9816 72.1553L40.9382 72.329ZM45.497 74.0223C45.0194 74.0223 44.6287 73.6315 44.6287 73.1539C44.6287 72.6764 45.0194 72.2856 45.497 72.2856C45.9746 72.2856 46.3654 72.6764 46.3654 73.1539C46.3654 73.5881 45.9746 73.9789 45.497 74.0223ZM46.1483 71.0265C46.1483 70.6357 46.4522 70.3318 46.843 70.3318C47.2337 70.3318 47.5377 70.6357 47.5377 71.0265C47.5377 71.4172 47.2337 71.7212 46.843 71.7212C46.4522 71.7212 46.1049 71.4172 46.1483 71.0265C46.1049 71.0265 46.1049 71.0265 46.1483 71.0265ZM47.9718 74.0223C47.4942 74.0223 47.1035 73.6315 47.1035 73.1539C47.1035 72.6764 47.4942 72.2856 47.9718 72.2856C48.4494 72.2856 48.8402 72.6764 48.8402 73.1539C48.8402 73.5881 48.4494 73.9789 47.9718 74.0223ZM56.2212 71.0265H54.4845V74.4999H53.2254V71.0265H51.4887V69.9845H56.2212V71.0265ZM61.6484 74.4999L61.2576 73.675H58.8262L58.4789 74.4999H57.2198L59.217 69.9845H60.9103L62.9944 74.4999H61.6484ZM69.9412 74.4999H68.7255L66.0336 71.5475V74.4999H64.8179V69.9845H66.1204L68.7689 72.8934V69.9845H69.9846L69.9412 74.4999ZM77.4958 74.4999H76.4973C76.4538 74.2828 76.4104 74.0657 76.3236 73.8921C75.9328 74.3696 75.325 74.6301 74.6737 74.5867H74.5869C72.5897 74.5867 71.9818 73.3276 71.9818 72.329V72.1119C71.9818 71.1567 72.5897 69.8976 74.6303 69.8976H74.8474C76.8012 69.8976 77.4524 70.766 77.4524 71.5041H76.1499C76.1065 71.3738 75.9328 70.8962 74.7605 70.8962C73.5883 70.8962 73.2843 71.5041 73.2843 72.1119V72.1988C73.2843 72.8066 73.6751 73.5013 74.7605 73.5013C75.846 73.5013 76.0631 72.9369 76.1065 72.8066H74.8908V71.9817H77.4958V74.4999ZM85.1808 72.329C85.1808 73.2842 84.5729 74.5867 82.4455 74.5867H82.185C80.0575 74.5867 79.4496 73.2842 79.4496 72.329V72.1119C79.4496 71.1133 80.0575 69.8976 82.185 69.8976H82.4455C84.5729 69.8976 85.1808 71.1567 85.1808 72.1119V72.329Z" fill="#13B5F0"/>
<path d="M82.3589 70.9396C81.0998 70.9396 80.7959 71.6343 80.7959 72.1987V72.2856C80.7959 72.85 81.0998 73.5447 82.3589 73.5447C83.6181 73.5447 83.922 72.8066 83.922 72.2856V72.1987C83.8786 71.5909 83.6181 70.9396 82.3589 70.9396Z" fill="#13B5F0"/>
<path d="M7.33301 30.9085V67.2491" stroke="#13B5F0" stroke-width="0.5" stroke-miterlimit="10"/>
<path d="M11.7617 28.8245V67.2491" stroke="#13B5F0" stroke-width="0.5" stroke-miterlimit="10"/>
<path d="M16.1904 26.6536V67.2491" stroke="#13B5F0" stroke-width="0.5" stroke-miterlimit="10"/>
<path d="M20.6191 24.4827V67.2491" stroke="#13B5F0" stroke-width="0.5" stroke-miterlimit="10"/>
<path d="M25.0479 48.7966V67.2491" stroke="#13B5F0" stroke-width="0.5" stroke-miterlimit="10"/>
<path d="M29.4766 52.27V67.2491" stroke="#13B5F0" stroke-width="0.5" stroke-miterlimit="10"/>
<path d="M33.9053 56.6118V67.2491" stroke="#13B5F0" stroke-width="0.5" stroke-miterlimit="10"/>
<path d="M38.377 56.6118V67.2491" stroke="#13B5F0" stroke-width="0.5" stroke-miterlimit="10"/>
<path d="M42.8057 56.6118V67.2491" stroke="#13B5F0" stroke-width="0.5" stroke-miterlimit="10"/>
<path d="M47.2344 60.9536V67.2491" stroke="#13B5F0" stroke-width="0.5" stroke-miterlimit="10"/>
<path d="M51.6621 58.7827V67.2492" stroke="#13B5F0" stroke-width="0.5" stroke-miterlimit="10"/>
<path d="M56.0918 56.6118V67.2491" stroke="#13B5F0" stroke-width="0.5" stroke-miterlimit="10"/>
<path d="M60.5195 20.5751V67.2491" stroke="#13B5F0" stroke-width="0.5" stroke-miterlimit="10"/>
<path d="M64.9482 22.746V67.2491" stroke="#13B5F0" stroke-width="0.5" stroke-miterlimit="10"/>
<path d="M69.377 24.4827V67.2491" stroke="#13B5F0" stroke-width="0.5" stroke-miterlimit="10"/>
<path d="M73.8057 26.6536V67.2491" stroke="#13B5F0" stroke-width="0.5" stroke-miterlimit="10"/>
<path d="M78.2344 28.8245V67.2491" stroke="#13B5F0" stroke-width="0.5" stroke-miterlimit="10"/>
<path d="M82.6631 30.9085V67.2491" stroke="#13B5F0" stroke-width="0.5" stroke-miterlimit="10"/>
<path d="M44.5854 39.071C46.0721 39.071 47.2773 37.8658 47.2773 36.3792C47.2773 34.8925 46.0721 33.6873 44.5854 33.6873C43.0988 33.6873 41.8936 34.8925 41.8936 36.3792C41.8936 37.8658 43.0988 39.071 44.5854 39.071Z" fill="#13B5F0"/>
<path d="M48.3629 41.2853C47.234 41.2853 46.3223 42.1971 46.3223 43.2826C46.3223 44.4114 47.234 45.3232 48.3195 45.3232C49.4483 45.3232 50.3601 44.4114 50.3601 43.326C50.4035 42.1971 49.4918 41.2853 48.3629 41.2853Z" fill="#13B5F0"/>
<path d="M40.7651 40.6341C39.2889 40.6341 38.0732 41.8064 38.0732 43.326C38.0732 44.8022 39.2455 46.0179 40.7651 46.0179C42.2848 46.0179 43.457 44.8456 43.457 43.326C43.4136 41.8498 42.2413 40.6341 40.7651 40.6341Z" fill="#13B5F0"/>
<path d="M64.2536 33.6872C62.1261 29.9533 58.3488 22.8762 58.6093 18.7516L57.437 18.2305L55.5266 19.7936C52.8347 21.9645 52.2269 25.4379 52.2269 25.4379L51.7927 25.6116C41.4593 16.407 43.7604 4.46714 43.8038 4.51056C43.8038 4.51056 44.4117 1.64499 45.5405 0.950312L44.8893 0.472717C44.8893 0.472717 42.1105 1.21082 40.808 2.07917C32.9928 6.85512 27.7393 13.6717 25.1342 22.2684C23.2673 28.4771 23.137 35.6845 25.6987 44.0206L25.2645 44.4982C24.1356 43.8036 23.137 42.9786 22.2687 42.0234L21.3135 42.9352C22.1818 45.6271 26.6104 63.0376 47.2338 63.0376C62.4734 63.0376 67.7704 50.1425 67.7704 45.2798C67.8138 39.9828 66.0771 36.9436 64.2536 33.6872ZM56.4818 51.0977C55.8739 51.6187 55.2661 52.0529 54.6148 52.4871C43.4131 59.8247 33.1231 50.5767 32.2113 49.7084L33.0362 48.6663C34.469 49.3176 35.9887 49.5781 37.5517 49.4913L37.8122 48.9268C37.378 48.4927 36.9438 48.0585 36.5531 47.5809C26.7841 36.1186 32.0376 19.1423 37.5951 14.7137L38.2464 15.0176C41.4159 31.2124 54.007 34.8161 54.007 34.8161H54.0504C54.2241 32.6018 54.6583 31.7334 54.6583 31.7334L55.57 31.5164C55.57 31.5164 56.0476 34.1214 57.958 38.4198C60.3894 42.4576 59.7815 47.9282 56.4818 51.0977Z" fill="#13B5F0"/>
<defs>
<linearGradient id="paint0_linear" x1="45.0026" y1="20.5751" x2="45.0026" y2="69.4895" gradientUnits="userSpaceOnUse">
<stop stop-color="#13B5F0"/>
<stop offset="1" stop-opacity="0"/>
</linearGradient>
</defs>
</svg>
