<svg width="385" height="47" viewBox="0 0 385 47" fill="none" xmlns="http://www.w3.org/2000/svg">
<path fill-rule="evenodd" clip-rule="evenodd" d="M132.93 1.18604L129.994 9.07473V40.6257H140.756V46.5451H146.632L152.503 40.6257H161.31L173.056 28.7979V1.18604H132.93ZM136.843 5.12789H169.142V26.8218L162.289 33.7252H151.525L145.656 39.6364V33.7252H136.843V5.12789ZM147.61 24.8522H151.525V13.0208H147.61V24.8522ZM158.375 24.8522H162.289V13.0208H158.375V24.8522Z" fill="#59526A"/>
<path d="M290.432 0.7854H275.5C268.628 0.7854 263.056 6.35762 263.056 13.2289V28.1612C263.056 35.0325 268.628 40.6047 275.5 40.6047H290.432C297.303 40.6047 302.875 35.0325 302.875 28.1612V13.2289C302.875 6.35762 297.303 0.7854 290.432 0.7854ZM299.142 28.1612C299.142 32.9644 295.235 36.8717 290.432 36.8717H275.5C270.696 36.8717 266.789 32.9644 266.789 28.1612V13.2289C266.789 8.42574 270.696 4.51846 275.5 4.51846H290.432C295.235 4.51846 299.142 8.42574 299.142 13.2289V28.1612Z" fill="#59526A"/>
<path d="M282.966 10.7405C277.468 10.7405 273.011 15.1978 273.011 20.6953C273.011 26.1929 277.468 30.6501 282.966 30.6501C288.463 30.6501 292.92 26.1929 292.92 20.6953C292.92 15.1978 288.463 10.7405 282.966 10.7405ZM282.966 26.9171C279.536 26.9171 276.744 24.1248 276.744 20.6953C276.744 17.2634 279.536 14.4735 282.966 14.4735C286.395 14.4735 289.187 17.2634 289.187 20.6953C289.187 24.1248 286.395 26.9171 282.966 26.9171Z" fill="#59526A"/>
<path d="M293.667 11.3207C294.399 11.3207 294.993 10.7268 294.993 9.99421C294.993 9.26161 294.399 8.66772 293.667 8.66772C292.934 8.66772 292.34 9.26161 292.34 9.99421C292.34 10.7268 292.934 11.3207 293.667 11.3207Z" fill="#59526A"/>
<path d="M373.136 0.7854H339.739C333.187 0.7854 327.875 6.01781 327.875 12.4723V28.9178C327.875 35.3723 333.187 40.6047 339.739 40.6047H373.136C379.688 40.6047 385 35.3723 385 28.9178V12.4723C385 6.01781 379.688 0.7854 373.136 0.7854ZM365.112 21.4952L349.492 28.8341C349.076 29.0296 348.595 28.7307 348.595 28.2765V13.14C348.595 12.6793 349.088 12.3808 349.505 12.589L365.126 20.3866C365.59 20.6184 365.582 21.2745 365.112 21.4952Z" fill="#59526A"/>
<path d="M14.1562 22.3828C14.1562 21.0217 15.1603 19.9061 16.4321 19.9061C17.7039 19.9061 18.7303 21.0217 18.7079 22.3828C18.7079 23.7438 17.7039 24.8594 16.4321 24.8594C15.1826 24.8594 14.1562 23.7438 14.1562 22.3828Z" fill="#59526A"/>
<path d="M22.3002 22.3828C22.3002 21.0217 23.3043 19.9061 24.5761 19.9061C25.8479 19.9061 26.852 21.0217 26.852 22.3828C26.852 23.7438 25.8479 24.8594 24.5761 24.8594C23.3266 24.8594 22.3002 23.7438 22.3002 22.3828Z" fill="#59526A"/>
<path fill-rule="evenodd" clip-rule="evenodd" d="M5.52131 1.18604H35.4199C37.9412 1.18604 39.9939 3.23877 39.9939 5.78239V45.8108L35.1968 41.5714L32.497 39.0724L29.641 36.4173L30.8235 40.5451H5.52131C3 40.5451 0.947266 38.4923 0.947266 35.9487V5.78239C0.947266 3.23877 3 1.18604 5.52131 1.18604ZM25.3347 28.5187C26.0041 29.3666 26.8073 30.326 26.8073 30.326C31.7383 30.1698 33.6349 26.9345 33.6349 26.9345C33.6349 19.7499 30.4219 13.9264 30.4219 13.9264C27.209 11.5167 24.1521 11.5836 24.1521 11.5836L23.8398 11.9406C27.6329 13.1008 29.3955 14.7743 29.3955 14.7743C27.075 13.5025 24.7992 12.8777 22.6795 12.6323C21.073 12.4538 19.5335 12.4984 18.1724 12.6769C18.0385 12.6769 17.927 12.6992 17.7931 12.7215C17.0122 12.7885 15.1156 13.0785 12.7282 14.1272C11.9027 14.5065 11.4118 14.7743 11.4118 14.7743C11.4118 14.7743 13.2637 13.0116 17.2799 11.8513L17.0568 11.5836C17.0568 11.5836 14 11.5167 10.787 13.9264C10.787 13.9264 7.57404 19.7499 7.57404 26.9345C7.57404 26.9345 9.44828 30.1698 14.3793 30.326C14.3793 30.326 15.2049 29.3219 15.8743 28.4741C13.0406 27.6262 11.9696 25.8412 11.9696 25.8412C11.9696 25.8412 12.1927 25.9974 12.5943 26.2205C12.6167 26.2428 12.639 26.2651 12.6836 26.2875C12.717 26.3098 12.7505 26.3265 12.784 26.3432C12.8174 26.36 12.8509 26.3767 12.8844 26.399C13.4422 26.7114 14 26.9568 14.5132 27.1576C15.428 27.5146 16.5213 27.8716 17.7931 28.1171C19.4665 28.4294 21.4301 28.541 23.572 28.1394C24.6207 27.9609 25.6917 27.6485 26.8073 27.1799C27.5882 26.8899 28.4584 26.466 29.3733 25.8635C29.3733 25.8635 28.2576 27.6931 25.3347 28.5187Z" fill="#59526A"/>
<path fill-rule="evenodd" clip-rule="evenodd" d="M201.056 0.604736C199.399 0.604736 198.056 1.94788 198.056 3.60474V37.6047C198.056 39.2616 199.399 40.6047 201.056 40.6047H235.056C236.713 40.6047 238.056 39.2616 238.056 37.6047V3.60474C238.056 1.94788 236.713 0.604736 235.056 0.604736H201.056ZM229.377 12.4659C230.606 12.3197 231.776 11.9921 232.866 11.509C232.053 12.7269 231.021 13.7967 229.827 14.6481L229.847 15.4348C229.847 23.4639 223.737 32.722 212.56 32.722C209.128 32.722 205.936 31.7151 203.246 29.9883C203.722 30.0419 204.205 30.0715 204.695 30.0715C207.542 30.0715 210.163 29.1035 212.242 27.4747C209.584 27.4266 207.34 25.6701 206.567 23.2547C206.939 23.3288 207.318 23.3676 207.711 23.3676C208.266 23.3676 208.803 23.2917 209.312 23.1548C206.533 22.5958 204.438 20.1397 204.438 17.1968V17.1209C205.258 17.5762 206.195 17.8501 207.19 17.8834C205.562 16.7951 204.488 14.935 204.488 12.8268C204.488 11.7126 204.786 10.6687 205.31 9.77285C208.307 13.4487 212.784 15.8678 217.833 16.1214C217.729 15.6772 217.676 15.2126 217.676 14.737C217.676 11.3832 220.396 8.66235 223.752 8.66235C225.501 8.66235 227.078 9.39902 228.187 10.5817C229.571 10.3078 230.871 9.80247 232.048 9.10655C231.592 10.5225 230.632 11.7144 229.377 12.4659Z" fill="#59526A"/>
<path fill-rule="evenodd" clip-rule="evenodd" d="M67.9937 0.604736C66.3368 0.604736 64.9937 1.94788 64.9937 3.60474V37.6047C64.9937 39.2616 66.3368 40.6047 67.9937 40.6047H101.994C103.65 40.6047 104.994 39.2616 104.994 37.6047V3.60474C104.994 1.94788 103.651 0.604736 101.994 0.604736H67.9937ZM99.8245 10.6854C100.93 10.6854 101.162 11.2544 100.93 12.0288C100.465 14.1582 96.0125 20.4303 96.0125 20.4303C95.6254 21.0497 95.4705 21.3595 96.0125 22.0563C96.2034 22.3236 96.6108 22.7226 97.0768 23.1791C97.556 23.6485 98.0973 24.1788 98.5292 24.6891C100.099 26.4551 101.282 27.9449 101.612 28.9718C101.913 30.0021 101.391 30.5241 100.347 30.5241H96.6921C95.7132 30.5241 95.2203 29.9758 94.1552 28.791C93.7038 28.2888 93.1496 27.6723 92.4119 26.9347C90.2438 24.844 89.3145 24.573 88.7725 24.573C88.0369 24.573 87.8169 24.7813 87.8169 25.8255V29.1028C87.8169 30.0021 87.5295 30.5241 85.2065 30.5241C81.3348 30.5241 77.08 28.1736 74.0602 23.8374C69.5303 17.4878 68.2914 12.6869 68.2914 11.719C68.2914 11.177 68.5002 10.6854 69.5444 10.6854H73.1989C74.1328 10.6854 74.4842 11.0942 74.8344 12.1062C76.6218 17.3127 79.6354 21.8628 80.8743 21.8628C81.3389 21.8628 81.552 21.6489 81.552 20.469V15.0874C81.4681 13.5555 80.933 12.893 80.5366 12.4023C80.2919 12.0992 80.1 11.8617 80.1 11.5254C80.1 11.1167 80.4492 10.6854 81.0299 10.6854H86.7727C87.5471 10.6854 87.8168 11.0996 87.8168 12.0288V19.2688C87.8168 20.0431 88.1531 20.3141 88.3853 20.3141C88.8499 20.3141 89.2371 20.0431 90.0889 19.1913C92.7216 16.2489 94.5801 11.719 94.5801 11.719C94.8124 11.177 95.2408 10.6854 96.17 10.6854H99.8245Z" fill="#59526A"/>
</svg>
