<svg width="413" height="47" viewBox="0 0 413 47" fill="none" xmlns="http://www.w3.org/2000/svg">
<path d="M310.793 10.9293C305.296 10.9293 300.839 15.3866 300.839 20.8842C300.839 26.3817 305.296 30.839 310.793 30.839C316.291 30.839 320.748 26.3817 320.748 20.8842C320.748 15.3866 316.291 10.9293 310.793 10.9293ZM310.793 27.1059C307.364 27.1059 304.572 24.3136 304.572 20.8842C304.572 17.4522 307.364 14.6624 310.793 14.6624C314.223 14.6624 317.015 17.4522 317.015 20.8842C317.015 24.3136 314.223 27.1059 310.793 27.1059Z" fill="#59526A"/>
<path d="M321.495 11.5095C322.227 11.5095 322.821 10.9156 322.821 10.183C322.821 9.45045 322.227 8.85657 321.495 8.85657C320.762 8.85657 320.168 9.45045 320.168 10.183C320.168 10.9156 320.762 11.5095 321.495 11.5095Z" fill="#59526A"/>
<path d="M157.249 1.37512L154.313 9.26381V40.8148H165.075V46.7342H170.951L176.822 40.8148H185.629L197.375 28.987V1.37512H157.249ZM161.162 5.31697H193.461V27.0108L186.608 33.9143H175.844L169.976 39.8255V33.9143H161.162V5.31697ZM171.929 25.0413H175.844V13.2099H171.929V25.0413ZM182.694 25.0413H186.608V13.2099H182.694V25.0413Z" fill="#59526A"/>
<path d="M318.26 0.974243H303.328C296.456 0.974243 290.884 6.54646 290.884 13.4178V28.35C290.884 35.2214 296.456 40.7936 303.328 40.7936H318.26C325.131 40.7936 330.703 35.2214 330.703 28.35V13.4178C330.703 6.54646 325.131 0.974243 318.26 0.974243ZM326.97 28.35C326.97 33.1532 323.063 37.0605 318.26 37.0605H303.328C298.524 37.0605 294.617 33.1532 294.617 28.35V13.4178C294.617 8.61458 298.524 4.70731 303.328 4.70731H318.26C323.063 4.70731 326.97 8.61458 326.97 13.4178V28.35Z" fill="#59526A"/>
<path d="M400.779 0.974365H367.383C360.831 0.974365 355.519 6.20677 355.519 12.6613V29.1068C355.519 35.5613 360.831 40.7937 367.383 40.7937H400.779C407.332 40.7937 412.643 35.5613 412.643 29.1068V12.6613C412.643 6.20677 407.332 0.974365 400.779 0.974365ZM392.756 21.6842L377.135 29.023C376.719 29.2186 376.238 28.9196 376.238 28.4654V13.329C376.238 12.8683 376.732 12.5697 377.149 12.778L392.769 20.5756C393.234 20.8074 393.226 21.4635 392.756 21.6842Z" fill="#59526A"/>
<path d="M13.8381 22.5717C13.8381 21.2107 14.8421 20.0951 16.1139 20.0951C17.3858 20.0951 18.4121 21.2107 18.3898 22.5717C18.3898 23.9328 17.3858 25.0484 16.1139 25.0484C14.8645 25.0484 13.8381 23.9328 13.8381 22.5717Z" fill="#59526A"/>
<path d="M21.9821 22.5717C21.9821 21.2107 22.9862 20.0951 24.258 20.0951C25.5298 20.0951 26.5339 21.2107 26.5339 22.5717C26.5339 23.9328 25.5298 25.0484 24.258 25.0484C23.0085 25.0484 21.9821 23.9328 21.9821 22.5717Z" fill="#59526A"/>
<path fill-rule="evenodd" clip-rule="evenodd" d="M5.20319 1.375H35.1018C37.623 1.375 39.6758 3.42774 39.6758 5.97135V45.9997L34.8786 41.7604L32.1788 39.2614L29.3229 36.6062L30.5054 40.734H5.20319C2.68188 40.734 0.62915 38.6813 0.62915 36.1377V5.97135C0.62915 3.42774 2.68188 1.375 5.20319 1.375ZM25.0166 28.7077C25.686 29.5555 26.4892 30.515 26.4892 30.515C31.4202 30.3588 33.3168 27.1235 33.3168 27.1235C33.3168 19.9389 30.1038 14.1154 30.1038 14.1154C26.8909 11.7056 23.834 11.7726 23.834 11.7726L23.5217 12.1296C27.3148 13.2898 29.0774 14.9632 29.0774 14.9632C26.7569 13.6914 24.4811 13.0667 22.3614 12.8212C20.7549 12.6427 19.2154 12.6874 17.8543 12.8659C17.7204 12.8659 17.6089 12.8882 17.475 12.9105C16.694 12.9774 14.7975 13.2675 12.4101 14.3162C11.5845 14.6955 11.0937 14.9632 11.0937 14.9632C11.0937 14.9632 12.9456 13.2006 16.9618 12.0403L16.7387 11.7726C16.7387 11.7726 13.6819 11.7056 10.4689 14.1154C10.4689 14.1154 7.25592 19.9389 7.25592 27.1235C7.25592 27.1235 9.13016 30.3588 14.0612 30.515C14.0612 30.515 14.8867 29.5109 15.5561 28.663C12.7224 27.8152 11.6515 26.0302 11.6515 26.0302C11.6515 26.0302 11.8746 26.1864 12.2762 26.4095C12.2985 26.4318 12.3208 26.4541 12.3655 26.4764C12.3989 26.4987 12.4324 26.5155 12.4659 26.5322C12.4993 26.5489 12.5328 26.5657 12.5663 26.588C13.1241 26.9004 13.6819 27.1458 14.1951 27.3466C15.1099 27.7036 16.2032 28.0606 17.475 28.306C19.1484 28.6184 21.1119 28.73 23.2539 28.3283C24.3026 28.1498 25.3736 27.8375 26.4892 27.3689C27.2701 27.0789 28.1403 26.6549 29.0551 26.0525C29.0551 26.0525 27.9395 27.8821 25.0166 28.7077Z" fill="#59526A"/>
<path fill-rule="evenodd" clip-rule="evenodd" d="M228.736 0.793701C227.079 0.793701 225.736 2.13685 225.736 3.7937V37.7937C225.736 39.4505 227.079 40.7937 228.736 40.7937H262.736C264.393 40.7937 265.736 39.4506 265.736 37.7937V3.7937C265.736 2.13685 264.393 0.793701 262.736 0.793701H228.736ZM257.057 12.6549C258.286 12.5086 259.455 12.181 260.546 11.698C259.733 12.9158 258.7 13.9856 257.506 14.8371L257.527 15.6237C257.527 23.6528 251.417 32.911 240.24 32.911C236.808 32.911 233.615 31.9041 230.926 30.1772C231.402 30.2309 231.885 30.2605 232.375 30.2605C235.222 30.2605 237.843 29.2925 239.921 27.6637C237.263 27.6155 235.02 25.8591 234.246 23.4437C234.618 23.5177 234.998 23.5566 235.39 23.5566C235.946 23.5566 236.482 23.4807 236.991 23.3437C234.213 22.7847 232.118 20.3286 232.118 17.3857V17.3098C232.938 17.7652 233.874 18.0391 234.87 18.0724C233.241 16.9841 232.168 15.124 232.168 13.0158C232.168 11.9015 232.466 10.8577 232.99 9.96182C235.986 13.6377 240.463 16.0568 245.513 16.3104C245.409 15.8662 245.355 15.4016 245.355 14.9259C245.355 11.5721 248.076 8.85132 251.432 8.85132C253.181 8.85132 254.758 9.58799 255.866 10.7707C257.251 10.4968 258.55 9.99144 259.727 9.29552C259.272 10.7115 258.312 11.9034 257.057 12.6549Z" fill="#59526A"/>
<path fill-rule="evenodd" clip-rule="evenodd" d="M78.1377 0.793701C76.4808 0.793701 75.1377 2.13685 75.1377 3.7937V37.7937C75.1377 39.4505 76.4808 40.7937 78.1377 40.7937H112.138C113.795 40.7937 115.138 39.4506 115.138 37.7937V3.7937C115.138 2.13685 113.795 0.793701 112.138 0.793701H78.1377ZM109.969 10.8744C111.074 10.8744 111.306 11.4434 111.074 12.2177C110.609 14.3471 106.157 20.6192 106.157 20.6192C105.769 21.2387 105.615 21.5485 106.157 22.2453C106.347 22.5126 106.755 22.9115 107.221 23.368C107.7 23.8375 108.241 24.3677 108.673 24.8781C110.243 26.6441 111.426 28.1339 111.756 29.1607C112.057 30.191 111.535 30.7131 110.491 30.7131H106.836C105.857 30.7131 105.364 30.1648 104.299 28.98C103.848 28.4778 103.294 27.8613 102.556 27.1236C100.388 25.0329 99.4586 24.7619 98.9166 24.7619C98.181 24.7619 97.9609 24.9703 97.9609 26.0145V29.2918C97.9609 30.191 97.6735 30.7131 95.3505 30.7131C91.4789 30.7131 87.2241 28.3625 84.2042 24.0263C79.6744 17.6768 78.4354 12.8759 78.4354 11.9079C78.4354 11.3659 78.6443 10.8744 79.6884 10.8744H83.3429C84.2769 10.8744 84.6282 11.2832 84.9785 12.2951C86.7658 17.5017 89.7795 22.0518 91.0183 22.0518C91.483 22.0518 91.696 21.8379 91.696 20.658V15.2763C91.6122 13.7444 91.077 13.0819 90.6807 12.5912C90.4359 12.2882 90.2441 12.0507 90.2441 11.7144C90.2441 11.3057 90.5933 10.8744 91.174 10.8744H96.9168C97.6912 10.8744 97.9608 11.2885 97.9608 12.2177V19.4578C97.9608 20.232 98.2971 20.503 98.5294 20.503C98.994 20.503 99.3812 20.232 100.233 19.3803C102.866 16.4378 104.724 11.9079 104.724 11.9079C104.956 11.3659 105.385 10.8744 106.314 10.8744H109.969Z" fill="#59526A"/>
</svg>
