<svg width="385" height="47" viewBox="0 0 385 47" fill="none" xmlns="http://www.w3.org/2000/svg">
<path d="M132.93 1.18604L129.994 9.07473V40.6257H140.756V46.5451H146.632L152.503 40.6257H161.31L173.056 28.7979V1.18604H132.93ZM136.843 5.12789H169.142V26.8218L162.289 33.7252H151.525L145.656 39.6364V33.7252H136.843V5.12789ZM147.61 24.8522H151.525V13.0208H147.61V24.8522ZM158.375 24.8522H162.289V13.0208H158.375V24.8522Z" fill="#EC0C4B"/>
<path d="M290.432 0.7854H275.5C268.628 0.7854 263.056 6.35762 263.056 13.2289V28.1612C263.056 35.0325 268.628 40.6047 275.5 40.6047H290.432C297.303 40.6047 302.875 35.0325 302.875 28.1612V13.2289C302.875 6.35762 297.303 0.7854 290.432 0.7854ZM299.142 28.1612C299.142 32.9644 295.235 36.8717 290.432 36.8717H275.5C270.696 36.8717 266.789 32.9644 266.789 28.1612V13.2289C266.789 8.42574 270.696 4.51846 275.5 4.51846H290.432C295.235 4.51846 299.142 8.42574 299.142 13.2289V28.1612Z" fill="#EC0C4B"/>
<path d="M282.966 10.7405C277.468 10.7405 273.011 15.1978 273.011 20.6953C273.011 26.1929 277.468 30.6501 282.966 30.6501C288.463 30.6501 292.92 26.1929 292.92 20.6953C292.92 15.1978 288.463 10.7405 282.966 10.7405ZM282.966 26.9171C279.536 26.9171 276.744 24.1248 276.744 20.6953C276.744 17.2634 279.536 14.4735 282.966 14.4735C286.395 14.4735 289.187 17.2634 289.187 20.6953C289.187 24.1248 286.395 26.9171 282.966 26.9171Z" fill="#EC0C4B"/>
<path d="M293.667 11.3207C294.399 11.3207 294.993 10.7268 294.993 9.99421C294.993 9.26161 294.399 8.66772 293.667 8.66772C292.934 8.66772 292.34 9.26161 292.34 9.99421C292.34 10.7268 292.934 11.3207 293.667 11.3207Z" fill="#EC0C4B"/>
<path d="M373.136 0.7854H339.739C333.187 0.7854 327.875 6.01781 327.875 12.4723V28.9178C327.875 35.3723 333.187 40.6047 339.739 40.6047H373.136C379.688 40.6047 385 35.3723 385 28.9178V12.4723C385 6.01781 379.688 0.7854 373.136 0.7854ZM365.112 21.4952L349.492 28.8341C349.076 29.0296 348.595 28.7307 348.595 28.2765V13.14C348.595 12.6793 349.088 12.3808 349.505 12.589L365.126 20.3866C365.59 20.6184 365.582 21.2745 365.112 21.4952Z" fill="#EC0C4B"/>
<path d="M14.1562 22.1967C14.1562 20.8357 15.1603 19.7201 16.4321 19.7201C17.7039 19.7201 18.7303 20.8357 18.7079 22.1967C18.7079 23.5578 17.7039 24.6734 16.4321 24.6734C15.1826 24.6734 14.1562 23.5578 14.1562 22.1967Z" fill="#EC0C4B"/>
<path d="M22.3002 22.1967C22.3002 20.8357 23.3043 19.7201 24.5761 19.7201C25.8479 19.7201 26.852 20.8357 26.852 22.1967C26.852 23.5578 25.8479 24.6734 24.5761 24.6734C23.3266 24.6734 22.3002 23.5578 22.3002 22.1967Z" fill="#EC0C4B"/>
<path fill-rule="evenodd" clip-rule="evenodd" d="M5.52131 1H35.4199C37.9412 1 39.9939 3.05274 39.9939 5.59635V45.6247L35.1968 41.3854L32.497 38.8864L29.641 36.2312L30.8235 40.359H5.52131C3 40.359 0.947266 38.3063 0.947266 35.7627V5.59635C0.947266 3.05274 3 1 5.52131 1ZM25.3347 28.3327C26.0041 29.1805 26.8073 30.14 26.8073 30.14C31.7383 29.9838 33.6349 26.7485 33.6349 26.7485C33.6349 19.5639 30.4219 13.7404 30.4219 13.7404C27.209 11.3306 24.1521 11.3976 24.1521 11.3976L23.8398 11.7546C27.6329 12.9148 29.3955 14.5882 29.3955 14.5882C27.075 13.3164 24.7992 12.6917 22.6795 12.4462C21.073 12.2677 19.5335 12.3124 18.1724 12.4909C18.0385 12.4909 17.927 12.5132 17.7931 12.5355C17.0122 12.6024 15.1156 12.8925 12.7282 13.9412C11.9027 14.3205 11.4118 14.5882 11.4118 14.5882C11.4118 14.5882 13.2637 12.8256 17.2799 11.6653L17.0568 11.3976C17.0568 11.3976 14 11.3306 10.787 13.7404C10.787 13.7404 7.57404 19.5639 7.57404 26.7485C7.57404 26.7485 9.44828 29.9838 14.3793 30.14C14.3793 30.14 15.2049 29.1359 15.8743 28.288C13.0406 27.4402 11.9696 25.6552 11.9696 25.6552C11.9696 25.6552 12.1927 25.8114 12.5943 26.0345C12.6167 26.0568 12.639 26.0791 12.6836 26.1014C12.717 26.1237 12.7505 26.1405 12.784 26.1572C12.8174 26.1739 12.8509 26.1907 12.8844 26.213C13.4422 26.5254 14 26.7708 14.5132 26.9716C15.428 27.3286 16.5213 27.6856 17.7931 27.931C19.4665 28.2434 21.4301 28.355 23.572 27.9533C24.6207 27.7748 25.6917 27.4625 26.8073 26.9939C27.5882 26.7039 28.4584 26.2799 29.3733 25.6775C29.3733 25.6775 28.2576 27.5071 25.3347 28.3327Z" fill="#EC0C4B"/>
<path fill-rule="evenodd" clip-rule="evenodd" d="M201.056 0.604736C199.399 0.604736 198.056 1.94788 198.056 3.60474V37.6047C198.056 39.2616 199.399 40.6047 201.056 40.6047H235.056C236.713 40.6047 238.056 39.2616 238.056 37.6047V3.60474C238.056 1.94788 236.713 0.604736 235.056 0.604736H201.056ZM229.377 12.4659C230.606 12.3197 231.776 11.9921 232.866 11.509C232.053 12.7269 231.021 13.7967 229.827 14.6481L229.847 15.4348C229.847 23.4639 223.737 32.722 212.56 32.722C209.128 32.722 205.936 31.7151 203.246 29.9883C203.722 30.0419 204.205 30.0715 204.695 30.0715C207.542 30.0715 210.163 29.1035 212.242 27.4747C209.584 27.4266 207.34 25.6701 206.567 23.2547C206.939 23.3288 207.318 23.3676 207.711 23.3676C208.266 23.3676 208.803 23.2917 209.312 23.1548C206.533 22.5958 204.438 20.1397 204.438 17.1968V17.1209C205.258 17.5762 206.195 17.8501 207.19 17.8834C205.562 16.7951 204.488 14.935 204.488 12.8268C204.488 11.7126 204.786 10.6687 205.31 9.77285C208.307 13.4487 212.784 15.8678 217.833 16.1214C217.729 15.6772 217.676 15.2126 217.676 14.737C217.676 11.3832 220.396 8.66235 223.752 8.66235C225.501 8.66235 227.078 9.39902 228.187 10.5817C229.571 10.3078 230.871 9.80247 232.048 9.10655C231.592 10.5225 230.632 11.7144 229.377 12.4659Z" fill="#EC0C4B"/>
<path fill-rule="evenodd" clip-rule="evenodd" d="M67.9937 0.604736C66.3368 0.604736 64.9937 1.94788 64.9937 3.60474V37.6047C64.9937 39.2616 66.3368 40.6047 67.9937 40.6047H101.994C103.65 40.6047 104.994 39.2616 104.994 37.6047V3.60474C104.994 1.94788 103.651 0.604736 101.994 0.604736H67.9937ZM99.8245 10.6854C100.93 10.6854 101.162 11.2544 100.93 12.0288C100.465 14.1582 96.0125 20.4303 96.0125 20.4303C95.6254 21.0497 95.4705 21.3595 96.0125 22.0563C96.2034 22.3236 96.6108 22.7226 97.0768 23.1791C97.556 23.6485 98.0973 24.1788 98.5292 24.6891C100.099 26.4551 101.282 27.9449 101.612 28.9718C101.913 30.0021 101.391 30.5241 100.347 30.5241H96.6921C95.7132 30.5241 95.2203 29.9758 94.1552 28.791C93.7038 28.2888 93.1496 27.6723 92.4119 26.9347C90.2438 24.844 89.3145 24.573 88.7725 24.573C88.0369 24.573 87.8169 24.7813 87.8169 25.8255V29.1028C87.8169 30.0021 87.5295 30.5241 85.2065 30.5241C81.3348 30.5241 77.08 28.1736 74.0602 23.8374C69.5303 17.4878 68.2914 12.6869 68.2914 11.719C68.2914 11.177 68.5002 10.6854 69.5444 10.6854H73.1989C74.1328 10.6854 74.4842 11.0942 74.8344 12.1062C76.6218 17.3127 79.6354 21.8628 80.8743 21.8628C81.3389 21.8628 81.552 21.6489 81.552 20.469V15.0874C81.4681 13.5555 80.933 12.893 80.5366 12.4023C80.2919 12.0992 80.1 11.8617 80.1 11.5254C80.1 11.1167 80.4492 10.6854 81.0299 10.6854H86.7727C87.5471 10.6854 87.8168 11.0996 87.8168 12.0288V19.2688C87.8168 20.0431 88.1531 20.3141 88.3853 20.3141C88.8499 20.3141 89.2371 20.0431 90.0889 19.1913C92.7216 16.2489 94.5801 11.719 94.5801 11.719C94.8124 11.177 95.2408 10.6854 96.17 10.6854H99.8245Z" fill="#EC0C4B"/>
</svg>
